<svg viewBox="0 0 20139 4742" version="1.1" xmlns="http://www.w3.org/2000/svg" desc="Created with imagetracer.js version 1.2.6" ><path fill="rgb(27,101,97)" stroke="rgb(27,101,97)" stroke-width="1" opacity="0.996078431372549" d="M 4994.5 323 L 5067.5 323 L 5068.5 324 L 5103.5 325 L 5104.5 326 L 5115.5 326 L 5116.5 327 L 5126.5 327 L 5127.5 328 L 5160.5 331 L 5161.5 332 L 5174.5 333 L 5210.5 340 L 5215.5 340 L 5257.5 350 L 5261.5 350 L 5319.5 366 L 5375.5 385 L 5429.5 407 Q 5537.6 454.9 5627.5 521 Q 5721.9 590.6 5801 675.5 Q 5890.1 770.9 5963 882.5 Q 6043.3 1005.2 6107 1144.5 Q 6137.7 1211.3 6165 1281.5 L 6198 1370.5 L 6222 1441.5 L 6222 1444.5 L 6246 1517.5 L 6276 1620.5 L 6307 1739.5 L 6307 1743.5 L 6313 1764.5 L 6323 1811.5 L 6325.5 1816 Q 6551.2 1925.8 6714 2098.5 Q 6773.6 2161.9 6823 2235.5 Q 6866.2 2299.3 6900 2372.5 Q 6915 2406 6927 2442.5 L 6935 2469.5 L 6944 2507.5 L 6944 2512.5 L 6949 2537.5 L 6951 2564.5 L 6952 2565.5 L 6953 2620.5 L 6952 2621.5 L 6952 2636.5 L 6951 2637.5 L 6951 2646.5 L 6950 2647.5 L 6948 2669.5 L 6940 2707.5 L 6926 2751.5 L 6905 2798.5 Q 6881.5 2843.5 6851 2881.5 Q 6817.7 2923.2 6778.5 2959 Q 6700.5 3029.5 6606.5 3084 Q 6497.5 3147.7 6374 3196 Q 6240.4 3631.1 5948.5 3909 Q 5857.3 3995.8 5748.5 4065 Q 5654.5 4125 5543.5 4168 L 5495.5 4185 L 5438.5 4202 L 5389.5 4214 L 5344.5 4223 L 5339.5 4223 L 5314.5 4228 L 5308.5 4228 L 5307.5 4229 L 5301.5 4229 L 5300.5 4230 L 5294.5 4230 L 5293.5 4231 L 5287.5 4231 L 5286.5 4232 L 5252.5 4235 L 5251.5 4236 L 5241.5 4236 L 5240.5 4237 L 5229.5 4237 L 5228.5 4238 L 5201.5 4239 L 5200.5 4240 L 5181.5 4240 L 5180.5 4241 L 5110.5 4242 L 5109.5 4241 L 5073.5 4241 L 5072.5 4240 L 5053.5 4240 L 5052.5 4239 L 5011.5 4237 L 5010.5 4236 L 5000.5 4236 L 4999.5 4235 L 4963.5 4232 L 4962.5 4231 L 4955.5 4231 L 4954.5 4230 L 4933.5 4228 L 4913.5 4224 L 4907.5 4224 L 4811.5 4205 L 4724.5 4182 L 4639.5 4154 L 4560.5 4123 Q 4459.7 4080.3 4369.5 4027 L 4362.5 4027 L 4361.5 4028 L 4355.5 4028 L 4348.5 4030 L 4342.5 4030 L 4335.5 4032 L 4329.5 4032 L 4328.5 4033 L 4322.5 4033 L 4315.5 4035 L 4309.5 4035 L 4280.5 4040 L 4273.5 4040 L 4258.5 4043 L 4251.5 4043 L 4250.5 4044 L 4243.5 4044 L 4242.5 4045 L 4235.5 4045 L 4218.5 4048 L 4210.5 4048 L 4209.5 4049 L 4201.5 4049 L 4192.5 4051 L 4174.5 4052 L 4173.5 4053 L 4131.5 4056 L 4130.5 4057 L 4092.5 4059 L 4091.5 4060 L 4076.5 4060 L 4075.5 4061 L 4035.5 4062 L 4034.5 4063 L 3946.5 4064 L 3945.5 4063 L 3914.5 4063 L 3913.5 4062 L 3895.5 4062 L 3894.5 4061 L 3857.5 4059 L 3856.5 4058 L 3847.5 4058 L 3846.5 4057 L 3822.5 4055 L 3821.5 4054 L 3815.5 4054 L 3814.5 4053 L 3808.5 4053 L 3807.5 4052 L 3778.5 4048 L 3713.5 4033 L 3655.5 4014 Q 3532.1 3965.9 3451 3875.5 Q 3414.9 3835.1 3387 3786.5 L 3358 3729.5 L 3338 3679.5 L 3319 3618.5 L 3307 3568.5 L 3296 3507.5 L 3292 3471.5 L 3291 3470.5 L 3289 3444.5 L 3288 3443.5 L 3287 3423.5 L 3286 3421 L 3261.5 3418 L 3260.5 3417 L 3254.5 3417 L 3253.5 3416 L 3247.5 3416 L 3246.5 3415 L 3240.5 3415 L 3239.5 3414 L 3233.5 3414 L 3219.5 3411 L 3213.5 3411 L 3206.5 3409 L 3200.5 3409 L 3187.5 3406 L 3181.5 3406 L 3180.5 3405 L 3127.5 3397 L 3121.5 3395 L 3116.5 3395 L 3110.5 3393 L 3105.5 3393 L 3099.5 3391 L 3094.5 3391 L 3032.5 3379 L 3027.5 3377 L 3013.5 3375 L 2959.5 3362 L 2955.5 3362 L 2895.5 3347 L 2828.5 3328 L 2760.5 3306 L 2708.5 3287 Q 2595.3 3243.7 2498.5 3184 Q 2451.3 3154.7 2408.5 3121 Q 2374.6 3093.9 2345 3062.5 Q 2315.6 3031.4 2291 2995.5 Q 2271.8 2967.2 2257 2934.5 Q 2246 2910 2239 2881.5 L 2235 2859.5 L 2235 2852.5 L 2234 2851.5 L 2233 2818.5 L 2234 2817.5 L 2234 2806.5 L 2235 2805.5 L 2235 2798.5 L 2239 2776.5 L 2246 2751.5 L 2254 2729.5 Q 2272.5 2684.5 2298 2646.5 Q 2328.5 2600.5 2364 2559.5 Q 2412.1 2504.1 2465.5 2454 Q 2542.2 2382.2 2628.5 2320 Q 2727.3 2248.8 2834 2185.5 Q 2788 2089.5 2749 1986.5 L 2713 1884.5 L 2684 1786.5 L 2666 1711.5 L 2657 1665.5 L 2657 1660.5 L 2652 1635.5 L 2652 1629.5 L 2651 1628.5 L 2651 1622.5 L 2650 1621.5 L 2650 1615.5 L 2649 1614.5 L 2649 1608.5 L 2648 1607.5 L 2646 1583.5 L 2645 1582.5 L 2645 1573.5 L 2644 1572.5 L 2644 1562.5 L 2643 1561.5 L 2642 1536.5 L 2641 1535.5 L 2641 1517.5 L 2640 1516.5 L 2640 1440.5 L 2641 1439.5 L 2641 1423.5 L 2642 1422.5 L 2642 1410.5 L 2643 1409.5 L 2645 1381.5 L 2655 1323.5 L 2667 1277.5 L 2685 1227.5 Q 2728.2 1126.2 2803.5 1057 Q 2861.1 1003.6 2934.5 966 Q 2968.9 948.4 3006.5 934 L 3058.5 916 L 3089.5 907 L 3129.5 897 L 3177.5 887 L 3182.5 887 L 3219.5 880 L 3232.5 879 L 3233.5 878 L 3240.5 878 L 3241.5 877 L 3264.5 875 L 3265.5 874 L 3273.5 874 L 3274.5 873 L 3282.5 873 L 3283.5 872 L 3315.5 870 L 3316.5 869 L 3328.5 869 L 3329.5 868 L 3343.5 868 L 3344.5 867 L 3382.5 866 L 3383.5 865 L 3413.5 865 L 3414.5 864 L 3508.5 864 L 3509.5 865 L 3541.5 865 L 3542.5 866 L 3565.5 866 L 3566.5 867 L 3617.5 869 L 3618.5 870 L 3631.5 870 L 3632.5 871 L 3644.5 871 L 3645.5 872 L 3657.5 872 L 3658.5 873 L 3711.5 877 L 3712.5 878 L 3748.5 881 L 3757.5 883 L 3765.5 883 L 3766.5 884 L 3805.5 888 L 3820.5 891 L 3827.5 891 L 3828.5 892 L 3862.5 896 L 3869.5 898 L 3875.5 898 L 3882.5 900 L 3888.5 900 L 3901.5 903 L 3907.5 903 L 3938.5 909 Q 4008.3 826.3 4086.5 752 Q 4190.5 652.5 4310.5 569 Q 4412.5 498 4529.5 442 Q 4583.5 416.5 4641.5 395 L 4706.5 373 L 4759.5 358 L 4810.5 346 L 4870.5 335 L 4876.5 335 L 4898.5 331 L 4905.5 331 L 4906.5 330 L 4933.5 328 L 4934.5 327 L 4972.5 325 L 4973.5 324 L 4993.5 324 L 4994.5 323 Z M 4872 430 L 4871 431 L 4840 432 L 4839 433 L 4830 433 L 4829 434 L 4798 437 L 4755 445 L 4730 451 L 4666 471 Q 4630 484 4597 500 Q 4527 534 4467 577 Q 4400 625 4342 680 Q 4217 799 4119 943 L 4200 960 L 4227 967 L 4231 967 L 4266 976 L 4270 976 L 4417 1012 L 4421 1014 L 4448 1020 L 4452 1022 L 4549 1047 L 4713 1094 L 4827 1129 L 4846 1136 L 4849 1136 L 5006 1188 L 5171 1247 L 5299 1296 Q 5512 1379 5704 1483 Q 5786 1527 5864 1576 L 5974 1649 L 6051 1707 L 6068 1712 L 6034 1597 L 6009 1522 L 5978 1437 Q 5927 1303 5865 1182 Q 5805 1064 5733 959 Q 5663 856 5580 768 Q 5505 688 5418 622 Q 5337 561 5242 515 Q 5193 492 5141 473 L 5101 460 L 5051 447 L 5004 438 L 4976 435 L 4975 434 L 4967 434 L 4966 433 L 4943 432 L 4942 431 L 4924 431 L 4923 430 L 4872 430 Z M 3282 968 L 3281 969 L 3239 970 L 3238 971 L 3228 971 L 3227 972 L 3204 974 L 3167 981 L 3138 989 Q 3075 1009 3032 1049 Q 3008 1071 2990 1099 L 2972 1131 L 2955 1172 L 2945 1205 L 2936 1246 L 2933 1271 L 2932 1272 L 2932 1279 L 2931 1280 L 2931 1287 L 2930 1288 L 2929 1308 L 2928 1309 L 2928 1322 L 2927 1323 L 2927 1343 L 2926 1344 L 2928 1424 L 2929 1425 L 2929 1442 L 2930 1443 L 2930 1456 L 2931 1457 L 2933 1491 L 2934 1492 L 2937 1526 L 2938 1527 L 2944 1572 L 2959 1644 L 2983 1731 L 3011 1817 L 3065 1970 L 3083 2016 L 3096 2045 Q 3245 1973 3406 1914 L 3422 1861 L 3447 1786 L 3493 1662 Q 3540 1544 3594 1435 Q 3698 1225 3830 1045 L 3657 1010 L 3652 1010 L 3646 1008 L 3641 1008 L 3635 1006 L 3630 1006 L 3624 1004 L 3613 1003 L 3607 1001 L 3566 995 L 3565 994 L 3559 994 L 3519 987 L 3513 987 L 3512 986 L 3505 986 L 3504 985 L 3467 981 L 3466 980 L 3458 980 L 3457 979 L 3449 979 L 3448 978 L 3440 978 L 3439 977 L 3431 977 L 3430 976 L 3399 974 L 3398 973 L 3387 973 L 3386 972 L 3359 971 L 3358 970 L 3340 970 L 3339 969 L 3282 968 Z M 4025 1086 Q 3925 1251 3844 1436 Q 3805 1525 3770 1619 L 3727 1743 L 3706 1812 L 3866 1766 L 4044 1721 L 4048 1721 L 4057 1718 L 4061 1718 L 4070 1715 L 4074 1715 L 4128 1702 L 4137 1701 L 4142 1699 L 4151 1698 L 4156 1696 L 4260 1675 L 4265 1675 L 4314 1665 L 4325 1664 L 4331 1662 L 4342 1661 L 4348 1659 L 4413 1649 L 4414 1648 L 4420 1648 L 4433 1645 L 4439 1645 L 4446 1643 L 4459 1642 L 4466 1640 L 4528 1632 L 4529 1631 L 4536 1631 L 4544 1629 L 4551 1629 L 4559 1627 L 4606 1622 L 4607 1621 L 4615 1621 L 4624 1619 L 4677 1614 L 4678 1613 L 4687 1613 L 4688 1612 L 4697 1612 L 4698 1611 L 4707 1611 L 4708 1610 L 4717 1610 L 4718 1609 L 4727 1609 L 4728 1608 L 4771 1605 L 4772 1604 L 4821 1601 L 4822 1600 L 4835 1600 L 4836 1599 L 4849 1599 L 4850 1598 L 4864 1598 L 4865 1597 L 4879 1597 L 4880 1596 L 4895 1596 L 4896 1595 L 4952 1593 L 4953 1592 L 4999 1591 L 5000 1590 L 5029 1590 L 5030 1589 L 5066 1589 L 5067 1588 L 5130 1588 L 5131 1587 L 5204 1587 L 5205 1588 L 5266 1588 L 5267 1589 L 5328 1590 L 5329 1591 L 5351 1591 L 5352 1592 L 5371 1592 L 5372 1593 L 5390 1593 L 5391 1594 L 5437 1596 L 5438 1597 L 5451 1597 L 5452 1598 L 5463 1598 L 5464 1599 L 5499 1601 L 5500 1602 L 5502 1602 Q 5336 1521 5161 1450 L 5009 1390 L 4789 1310 L 4566 1236 L 4563 1236 L 4437 1196 L 4367 1176 L 4357 1172 L 4350 1171 L 4283 1151 L 4195 1128 L 4191 1126 L 4172 1122 L 4168 1120 L 4052 1091 L 4025 1086 Z M 4937 1688 L 4936 1689 L 4899 1689 L 4898 1690 L 4871 1690 L 4870 1691 L 4812 1693 L 4811 1694 L 4796 1694 L 4795 1695 L 4753 1697 L 4752 1698 L 4741 1698 L 4740 1699 L 4729 1699 L 4728 1700 L 4717 1700 L 4716 1701 L 4706 1701 L 4705 1702 L 4664 1705 L 4663 1706 L 4618 1710 L 4609 1712 L 4601 1712 L 4584 1715 L 4577 1715 L 4576 1716 L 4569 1716 L 4561 1718 L 4554 1718 L 4553 1719 L 4546 1719 L 4524 1723 L 4517 1723 L 4516 1724 L 4483 1728 L 4450 1734 L 4444 1734 L 4395 1743 L 4390 1743 L 4384 1745 L 4367 1747 L 4203 1779 L 4198 1781 L 4189 1782 L 4112 1800 L 4108 1800 L 4099 1803 L 4095 1803 L 4044 1816 L 4040 1816 L 3863 1861 L 3679 1912 L 3675 1920 L 3656 1995 L 3656 1999 L 3651 2016 L 3651 2020 L 3636 2083 L 3634 2097 L 3632 2102 L 3617 2178 L 3612 2211 L 3610 2217 L 3602 2270 L 3601 2271 L 3601 2277 L 3598 2290 L 3597 2303 L 3595 2310 L 3590 2351 L 3589 2352 L 3589 2359 L 3587 2367 L 3580 2430 L 3579 2431 L 3577 2457 L 3576 2458 L 3576 2467 L 3574 2477 L 3572 2506 L 3571 2507 L 3571 2517 L 3570 2518 L 3570 2528 L 3569 2529 L 3569 2539 L 3568 2540 L 3566 2575 L 3565 2576 L 3563 2617 L 3562 2618 L 3562 2632 L 3561 2633 L 3561 2648 L 3560 2649 L 3560 2665 L 3559 2666 L 3559 2684 L 3558 2685 L 3557 2728 L 3556 2729 L 3556 2755 L 3555 2756 L 3555 2789 L 3554 2790 Q 3653 2938 3758 3081 Q 3851 3205 3951 3323 L 3958 3329 L 3967 3329 L 3968 3330 L 4018 3333 L 4019 3334 L 4031 3334 L 4032 3335 L 4044 3335 L 4045 3336 L 4058 3336 L 4059 3337 L 4087 3338 L 4088 3339 L 4118 3340 L 4119 3341 L 4168 3343 L 4169 3344 L 4186 3344 L 4187 3345 L 4204 3345 L 4205 3346 L 4265 3348 L 4266 3349 L 4287 3349 L 4288 3350 L 4310 3350 L 4311 3351 L 4336 3351 L 4337 3352 L 4363 3352 L 4364 3353 L 4394 3353 L 4395 3354 L 4468 3355 L 4469 3356 L 4519 3356 L 4520 3357 L 4609 3357 L 4610 3358 L 4706 3358 L 4707 3357 L 4846 3356 L 4847 3355 L 4920 3354 L 4921 3353 L 4949 3353 L 4950 3352 L 4976 3352 L 4977 3351 L 5001 3351 L 5002 3350 L 5067 3348 L 5068 3347 L 5086 3347 L 5087 3346 L 5105 3346 L 5106 3345 L 5157 3343 L 5158 3342 L 5204 3340 L 5205 3339 L 5218 3339 L 5219 3338 L 5233 3338 L 5234 3337 L 5247 3337 L 5248 3336 L 5261 3336 L 5262 3335 L 5274 3335 L 5275 3334 L 5287 3334 L 5288 3333 L 5300 3333 L 5301 3332 L 5313 3332 L 5314 3331 L 5373 3327 L 5374 3326 L 5384 3326 L 5385 3325 L 5395 3325 L 5396 3324 L 5406 3324 L 5417 3322 L 5427 3322 L 5428 3321 L 5437 3321 L 5438 3320 L 5486 3316 L 5487 3315 L 5496 3315 L 5497 3314 L 5541 3310 L 5550 3308 L 5558 3308 L 5575 3305 L 5582 3305 L 5583 3304 L 5590 3304 L 5591 3303 L 5598 3303 L 5599 3302 L 5606 3302 L 5607 3301 L 5614 3301 L 5622 3299 L 5629 3299 L 5644 3296 L 5651 3296 L 5680 3291 L 5686 3291 L 5687 3290 L 5693 3290 L 5700 3288 L 5732 3284 L 5799 3272 L 5804 3272 L 5848 3263 L 5853 3263 L 5932 3247 L 5986 3234 L 5990 3234 L 6003 3230 L 6007 3230 L 6102 3206 L 6173 3186 L 6184 3151 L 6199 3096 L 6199 3092 L 6208 3056 L 6211 3037 L 6213 3032 L 6216 3012 L 6220 2996 L 6220 2991 L 6222 2985 L 6222 2980 L 6224 2974 L 6229 2939 L 6230 2938 L 6230 2932 L 6232 2925 L 6232 2919 L 6234 2912 L 6235 2899 L 6236 2898 L 6236 2891 L 6238 2883 L 6241 2852 L 6242 2851 L 6242 2843 L 6243 2842 L 6243 2834 L 6244 2833 L 6246 2804 L 6247 2803 L 6247 2792 L 6248 2791 L 6248 2780 L 6249 2779 L 6249 2766 L 6250 2765 L 6251 2732 L 6252 2731 L 6252 2708 L 6253 2707 L 6253 2627 L 6252 2626 L 6252 2609 L 6251 2608 L 6251 2595 L 6250 2594 L 6250 2582 L 6249 2581 L 6247 2551 L 6246 2550 L 6245 2534 L 6244 2533 L 6239 2493 L 6238 2492 L 6238 2486 L 6236 2480 L 6235 2469 L 6228 2434 L 6213 2373 L 6202 2336 L 6181 2276 Q 6139 2168 6080 2079 Q 6019 1987 5944 1910 Q 5910 1874 5873 1842 L 5800 1815 L 5697 1782 L 5636 1765 L 5535 1741 L 5463 1727 L 5416 1720 L 5415 1719 L 5409 1719 L 5402 1717 L 5368 1713 L 5367 1712 L 5360 1712 L 5352 1710 L 5345 1710 L 5344 1709 L 5337 1709 L 5336 1708 L 5329 1708 L 5328 1707 L 5275 1702 L 5274 1701 L 5254 1700 L 5253 1699 L 5243 1699 L 5242 1698 L 5206 1696 L 5205 1695 L 5192 1695 L 5191 1694 L 5176 1694 L 5175 1693 L 5160 1693 L 5159 1692 L 5120 1691 L 5119 1690 L 5093 1690 L 5092 1689 L 5056 1689 L 5055 1688 L 4937 1688 Z M 3379 2005 L 3250 2054 L 3127 2108 L 3148 2150 L 3186 2217 L 3299 2398 L 3314 2301 L 3316 2295 L 3320 2268 L 3335 2192 L 3337 2187 L 3338 2178 L 3350 2128 L 3350 2124 L 3353 2115 L 3353 2111 L 3357 2098 L 3357 2094 L 3380 2007 Q 3381 2004 3379 2005 Z M 6382 2129 L 6381 2137 L 6382 2138 L 6384 2157 L 6394 2189 L 6405 2233 L 6419 2300 L 6419 2305 L 6421 2311 L 6421 2316 L 6429 2357 L 6429 2363 L 6438 2415 L 6447 2484 L 6448 2485 L 6449 2500 L 6450 2501 L 6452 2528 L 6453 2529 L 6453 2540 L 6454 2541 L 6454 2552 L 6455 2553 L 6456 2582 L 6457 2583 L 6457 2604 L 6458 2605 L 6458 2710 L 6457 2711 L 6457 2733 L 6456 2734 L 6455 2765 L 6454 2766 L 6454 2778 L 6453 2779 L 6453 2790 L 6452 2791 L 6452 2802 L 6451 2803 L 6448 2841 L 6447 2842 L 6446 2858 L 6445 2859 L 6445 2866 L 6444 2867 L 6444 2874 L 6442 2882 L 6439 2910 L 6437 2917 L 6437 2923 L 6429 2966 L 6429 2971 L 6416 3037 L 6405 3082 L 6406 3083 Q 6430 3067 6451 3048 Q 6487 3015 6513 2973 Q 6550 2917 6579 2854 L 6603 2795 L 6618 2747 L 6629 2699 L 6632 2675 L 6633 2674 L 6633 2667 L 6634 2666 L 6634 2659 L 6635 2658 L 6636 2635 L 6637 2634 L 6637 2572 L 6636 2571 L 6636 2559 L 6635 2558 L 6635 2549 L 6634 2548 L 6634 2540 L 6633 2539 L 6631 2520 L 6625 2490 L 6617 2460 L 6600 2412 Q 6574 2349 6537 2297 Q 6501 2246 6459 2202 Q 6422 2163 6382 2129 Z M 2871 2256 Q 2822 2289 2779 2326 Q 2728 2369 2682 2416 Q 2641 2455 2605 2499 Q 2576 2534 2552 2575 Q 2531 2611 2517 2655 L 2510 2684 L 2508 2704 L 2507 2705 L 2507 2716 L 2506 2717 L 2506 2748 L 2507 2749 L 2507 2759 L 2508 2760 L 2510 2780 Q 2516 2808 2526 2833 Q 2552 2893 2595 2937 Q 2618 2960 2644 2981 L 2703 3023 Q 2772 3068 2853 3103 L 2927 3133 L 3031 3168 L 3120 3193 L 3268 3228 L 3269 3228 L 3268 3227 L 3268 3213 L 3267 3212 L 3267 3197 L 3266 3196 L 3266 3180 L 3265 3179 L 3264 3142 L 3263 3141 L 3262 3094 L 3261 3093 L 3261 3062 L 3260 3061 L 3260 3018 L 3259 3017 L 3259 2883 L 3260 2882 L 3260 2876 Q 3140 2706 3030 2527 Q 2948 2395 2872 2258 Q 2873 2255 2871 2256 Z M 6112 3286 L 6029 3310 L 5935 3334 L 5931 3334 L 5880 3347 L 5867 3349 L 5831 3358 L 5822 3359 L 5817 3361 L 5808 3362 L 5803 3364 L 5794 3365 L 5789 3367 L 5770 3370 L 5765 3372 L 5715 3382 L 5710 3382 L 5689 3387 L 5684 3387 L 5673 3390 L 5668 3390 L 5657 3393 L 5584 3405 L 5578 3407 L 5531 3414 L 5530 3415 L 5524 3415 L 5505 3419 L 5499 3419 L 5486 3422 L 5480 3422 L 5473 3424 L 5467 3424 L 5460 3426 L 5447 3427 L 5440 3429 L 5371 3438 L 5370 3439 L 5349 3441 L 5348 3442 L 5341 3442 L 5333 3444 L 5318 3445 L 5310 3447 L 5255 3453 L 5254 3454 L 5238 3455 L 5237 3456 L 5230 3456 L 5229 3457 L 5212 3458 L 5203 3460 L 5140 3466 L 5139 3467 L 5080 3472 L 5079 3473 L 5070 3473 L 5069 3474 L 5059 3474 L 5058 3475 L 5048 3475 L 5047 3476 L 5037 3476 L 5036 3477 L 5026 3477 L 5025 3478 L 5015 3478 L 5014 3479 L 4992 3480 L 4991 3481 L 4942 3484 L 4941 3485 L 4928 3485 L 4927 3486 L 4865 3488 L 4864 3489 L 4840 3489 L 4839 3490 L 4813 3490 L 4812 3491 L 4784 3491 L 4783 3492 L 4751 3492 L 4750 3493 L 4670 3494 L 4669 3495 L 4617 3495 L 4616 3496 L 4543 3496 L 4542 3497 L 4323 3497 L 4322 3496 L 4253 3496 L 4252 3495 L 4165 3494 L 4164 3493 L 4131 3493 L 4130 3492 L 4107 3493 Q 4227 3616 4364 3724 Q 4476 3814 4604 3889 L 4696 3871 L 4701 3869 L 4710 3868 L 4715 3866 L 4724 3865 L 4774 3853 L 4778 3853 L 4804 3846 L 4808 3846 L 4908 3821 L 4999 3796 L 5099 3766 L 5203 3732 L 5296 3699 L 5390 3663 Q 5520 3611 5644 3553 L 5742 3506 L 5945 3403 L 5999 3374 L 6044 3346 Q 6082 3320 6114 3287 L 6112 3286 Z M 6079 3435 Q 5998 3497 5902 3543 L 5784 3595 L 5639 3654 L 5399 3744 L 5187 3818 L 4948 3896 L 4798 3942 L 4736 3959 Q 4731 3958 4732 3961 L 4832 4012 L 4867 4028 L 4919 4049 L 4980 4069 L 5049 4087 L 5117 4100 L 5144 4103 L 5145 4104 L 5152 4104 L 5153 4105 L 5170 4106 L 5171 4107 L 5180 4107 L 5181 4108 L 5205 4109 L 5206 4110 L 5223 4110 L 5224 4111 L 5255 4111 L 5256 4112 L 5329 4110 L 5330 4109 L 5353 4108 L 5354 4107 L 5363 4107 L 5364 4106 L 5372 4106 L 5373 4105 L 5401 4102 L 5440 4095 L 5486 4084 L 5543 4066 Q 5609 4042 5665 4007 Q 5724 3970 5773 3923 Q 5811 3887 5844 3846 Q 5888 3792 5925 3733 Q 5966 3667 6002 3598 Q 6043 3519 6079 3437 L 6079 3435 Z M 3594 3458 L 3605 3514 L 3618 3561 Q 3631 3604 3649 3644 Q 3684 3722 3739 3782 Q 3801 3849 3894 3886 L 3936 3900 L 3995 3913 L 4031 3917 L 4032 3918 L 4052 3919 L 4053 3920 L 4083 3921 L 4084 3922 L 4112 3922 L 4113 3923 L 4175 3923 L 4176 3922 L 4215 3922 Q 4058 3803 3919 3666 Q 3825 3576 3738 3479 L 3730 3470 L 3685 3467 L 3684 3466 L 3674 3466 L 3673 3465 L 3663 3465 L 3662 3464 L 3652 3464 L 3651 3463 L 3641 3463 L 3640 3462 L 3630 3462 L 3629 3461 L 3620 3461 L 3619 3460 L 3594 3458 Z " /><path fill="rgb(27,101,97)" stroke="rgb(27,101,97)" stroke-width="1" opacity="0.996078431372549" d="M 16186 868 L 16665.5 868 L 16666 868.5 L 16666 2937.5 L 16667 2938.5 L 16667 2956.5 L 16668 2957.5 L 16669 2974.5 L 16675 3001.5 Q 16683 3028.5 16701.5 3045 Q 16714.6 3056.4 16732.5 3063 L 16752.5 3069 L 16768.5 3072 L 16774.5 3072 L 16776 3073.5 L 16776 3460.5 L 16773.5 3461 L 16721.5 3471 L 16715.5 3471 L 16686.5 3476 L 16679.5 3476 L 16678.5 3477 L 16671.5 3477 L 16670.5 3478 L 16652.5 3479 L 16651.5 3480 L 16625.5 3481 L 16624.5 3482 L 16534.5 3482 L 16533.5 3481 L 16521.5 3481 L 16520.5 3480 L 16503.5 3479 L 16475.5 3474 L 16455.5 3469 L 16419.5 3456 Q 16364.7 3431.8 16327 3390.5 Q 16306.5 3368.5 16292 3340.5 Q 16281.5 3320.5 16275 3296.5 L 16270 3274.5 L 16269 3262.5 L 16268 3261.5 L 16268 3252.5 L 16267 3251.5 L 16267 3235.5 L 16266 3234.5 L 16266 3219.5 L 16265 3218.5 L 16265 3202.5 L 16264 3201.5 L 16264 3186.5 L 16263 3185.5 L 16263 3169.5 L 16262 3168.5 L 16262 3153.5 L 16261 3152.5 L 16260.5 3139 Q 16207.2 3230.7 16131.5 3300 Q 16079.7 3347.7 16017.5 3385 Q 15951.6 3424.1 15874.5 3452 L 15809.5 3472 L 15775.5 3480 L 15731.5 3488 L 15710.5 3490 L 15709.5 3491 L 15701.5 3491 L 15700.5 3492 L 15692.5 3492 L 15691.5 3493 L 15668.5 3494 L 15667.5 3495 L 15650.5 3495 L 15649.5 3496 L 15576.5 3496 L 15575.5 3495 L 15555.5 3495 L 15554.5 3494 L 15528.5 3493 L 15527.5 3492 L 15518.5 3492 L 15517.5 3491 L 15508.5 3491 L 15507.5 3490 L 15484.5 3488 L 15483.5 3487 L 15452.5 3483 L 15408.5 3474 L 15352.5 3459 Q 15304.7 3444.3 15261.5 3425 Q 15101.4 3352.6 14990 3231.5 Q 14861.1 3094.9 14790 2900.5 L 14775 2855.5 L 14765 2820.5 L 14753 2770.5 L 14742 2709.5 L 14739 2681.5 L 14738 2680.5 L 14738 2672.5 L 14737 2671.5 L 14737 2663.5 L 14736 2662.5 L 14736 2654.5 L 14735 2653.5 L 14734 2631.5 L 14733 2630.5 L 14733 2616.5 L 14732 2615.5 L 14731 2571.5 L 14730 2570.5 L 14730 2509.5 L 14731 2508.5 L 14732 2462.5 L 14733 2461.5 L 14733 2448.5 L 14734 2447.5 L 14734 2435.5 L 14735 2434.5 L 14735 2424.5 L 14736 2423.5 L 14738 2396.5 L 14739 2395.5 L 14743 2359.5 L 14753 2303.5 L 14768 2240.5 L 14780 2199.5 L 14795 2155.5 L 14814 2107.5 Q 14892.9 1922.4 15029.5 1795 Q 15085 1743.5 15150.5 1702 Q 15211.3 1663.3 15283.5 1636 L 15321.5 1623 L 15356.5 1613 L 15381.5 1607 L 15435.5 1597 L 15465.5 1594 L 15466.5 1593 L 15475.5 1593 L 15476.5 1592 L 15499.5 1591 L 15500.5 1590 L 15574.5 1588 L 15575.5 1589 L 15619.5 1590 L 15620.5 1591 L 15650.5 1593 L 15651.5 1594 L 15673.5 1596 L 15717.5 1604 L 15778.5 1620 Q 15816.3 1631.7 15850.5 1647 Q 15986.4 1709.1 16084 1809.5 Q 16142.4 1869.1 16185.5 1944 L 16186 868 Z M 15695 1994 L 15694 1995 L 15676 1995 L 15675 1996 L 15654 1997 L 15653 1998 L 15639 1999 L 15612 2004 L 15574 2014 L 15541 2026 Q 15462 2060 15404 2114 Q 15325 2184 15278 2287 L 15260 2332 L 15243 2389 L 15231 2451 L 15229 2475 L 15228 2476 L 15228 2485 L 15227 2486 L 15227 2497 L 15226 2498 L 15226 2514 L 15225 2515 L 15225 2580 L 15226 2581 L 15226 2596 L 15227 2597 L 15227 2608 L 15229 2618 L 15229 2626 L 15239 2683 L 15247 2714 L 15257 2745 Q 15302 2866 15384 2951 Q 15445 3013 15532 3050 L 15572 3065 L 15615 3077 L 15665 3086 L 15691 3088 L 15692 3089 L 15705 3089 L 15706 3090 L 15768 3090 L 15769 3089 L 15780 3089 L 15781 3088 L 15790 3088 L 15805 3085 L 15811 3085 L 15852 3076 L 15903 3059 Q 15949 3040 15990 3015 Q 16037 2985 16078 2948 Q 16116 2914 16146 2872 Q 16174 2832 16190 2781 L 16190 2350 Q 16173 2301 16148 2261 Q 16121 2216 16086 2179 Q 16004 2089 15888 2034 L 15854 2020 L 15830 2012 L 15791 2002 L 15768 1998 L 15762 1998 L 15761 1997 L 15743 1996 L 15742 1995 L 15695 1994 Z " /><path fill="rgb(27,101,97)" stroke="rgb(27,101,97)" stroke-width="1" opacity="0.996078431372549" d="M 7664.5 919 L 7692.5 919 L 7693.5 920 L 7705.5 920 L 7706.5 921 L 7721.5 922 L 7749.5 928 L 7779.5 938 Q 7842 964 7883 1011.5 Q 7916.1 1048.4 7935 1099.5 L 7944 1130.5 L 7948 1152.5 L 7949 1170.5 L 7950 1171.5 L 7950 1210.5 L 7949 1211.5 L 7947 1235.5 L 7941 1262.5 L 7927 1301.5 Q 7903.8 1352.3 7865.5 1388 Q 7827.1 1425.1 7772.5 1446 L 7750.5 1453 L 7716.5 1460 L 7698.5 1461 L 7697.5 1462 L 7659.5 1462 L 7658.5 1461 L 7640.5 1460 L 7610.5 1454 L 7590.5 1448 L 7563.5 1437 Q 7511.2 1411.8 7475 1370.5 Q 7442 1334 7423 1283.5 L 7415 1257.5 L 7410 1232.5 L 7409 1218.5 L 7408 1217.5 L 7408 1204.5 L 7407 1203.5 L 7407 1177.5 L 7408 1176.5 L 7409 1155.5 L 7413 1132.5 L 7420 1106.5 L 7430 1080.5 Q 7454.9 1026.4 7496.5 989 Q 7530.2 958.2 7575.5 939 L 7597.5 931 L 7620.5 925 L 7643.5 921 L 7663.5 920 L 7664.5 919 Z " /><path fill="rgb(27,101,97)" stroke="rgb(27,101,97)" stroke-width="1" opacity="0.996078431372549" d="M 11813 986 L 12205 986 L 12205 1596 L 12848 1596 L 12848 1899 L 12205 1899 L 12205 2936.5 L 12206 2937.5 L 12207 2953.5 L 12211 2974.5 L 12223 3011.5 Q 12237.8 3046.2 12264.5 3069 Q 12294.1 3095.4 12337.5 3108 L 12359.5 3113 L 12372.5 3114 L 12373.5 3115 L 12383.5 3115 L 12384.5 3116 L 12426.5 3116 L 12427.5 3115 L 12440.5 3115 L 12441.5 3114 L 12450.5 3114 L 12451.5 3113 L 12478.5 3110 L 12502.5 3105 L 12531.5 3097 L 12582.5 3078 L 12667 3042 L 12668 3049.5 L 12672 3060.5 L 12673 3067.5 L 12720 3234.5 L 12724 3252.5 L 12728 3263.5 L 12732 3281.5 L 12736 3292.5 L 12740 3310.5 L 12744 3321.5 L 12748 3339.5 L 12752 3350.5 L 12744.5 3355 L 12693.5 3377 L 12598.5 3414 L 12536.5 3434 L 12460.5 3454 L 12411.5 3464 L 12379.5 3468 L 12378.5 3469 L 12371.5 3469 L 12370.5 3470 L 12353.5 3471 L 12352.5 3472 L 12329.5 3473 L 12328.5 3474 L 12313.5 3474 L 12312.5 3475 L 12288.5 3475 L 12287.5 3476 L 12245.5 3476 L 12244.5 3475 L 12224.5 3475 L 12223.5 3474 L 12191.5 3472 L 12190.5 3471 L 12169.5 3469 L 12142.5 3464 L 12095.5 3452 L 12045.5 3434 Q 11963.8 3399.8 11909 3338.5 Q 11866.1 3292.8 11841 3229.5 L 11833 3206.5 L 11825 3176.5 L 11817 3130.5 L 11816 3112.5 L 11815 3111.5 L 11815 3099.5 L 11814 3098.5 L 11814 3077.5 L 11813 3076.5 L 11813 1899 L 11565 1899 L 11565 1596 L 11813 1596 L 11813 986 Z " /><path fill="rgb(27,101,97)" stroke="rgb(27,101,97)" stroke-width="1" opacity="0.996078431372549" d="M 9216.5 1568 L 9280.5 1568 L 9281.5 1569 L 9301.5 1569 L 9302.5 1570 L 9315.5 1570 L 9316.5 1571 L 9327.5 1571 L 9328.5 1572 L 9353.5 1574 L 9409.5 1584 Q 9443.2 1591.8 9473.5 1603 Q 9570.8 1641.2 9637 1710.5 Q 9671.2 1745.8 9697 1789.5 Q 9726.6 1839.9 9748 1898.5 L 9766 1954.5 L 9780 2012.5 L 9791 2075.5 L 9794 2103.5 L 9796 2111.5 L 9796 2118.5 L 9797 2119.5 L 9800 2155.5 L 9801 2156.5 L 9803 2191.5 L 9804 2192.5 L 9804 2206.5 L 9805 2207.5 L 9805 2222.5 L 9806 2223.5 L 9807 2274.5 L 9808 2275.5 L 9808 3440 L 9420 3440 L 9420 2374.5 L 9419 2373.5 L 9419 2346.5 L 9418 2345.5 L 9417 2313.5 L 9416 2312.5 L 9416 2300.5 L 9415 2299.5 L 9415 2289.5 L 9414 2288.5 L 9414 2279.5 L 9413 2278.5 L 9411 2254.5 L 9410 2253.5 L 9409 2240.5 L 9402 2200.5 L 9389 2148.5 L 9374 2105.5 L 9355 2065.5 L 9334 2032.5 L 9305 1998 L 9303.5 1998 L 9279.5 1976 L 9259.5 1962 Q 9236.7 1947.3 9209.5 1937 L 9168.5 1925 L 9140.5 1920 L 9123.5 1919 L 9122.5 1918 L 9109.5 1918 L 9108.5 1917 L 9065.5 1917 L 9064.5 1918 L 9049.5 1918 L 9048.5 1919 L 9039.5 1919 L 9038.5 1920 L 9016.5 1922 L 8965.5 1933 L 8919.5 1948 Q 8885.9 1960.9 8855.5 1977 Q 8752.5 2032 8675 2112.5 Q 8629.5 2159 8594 2215.5 Q 8557.1 2274.1 8533 2345.5 L 8533 3440 L 8142.5 3440 L 8142 3439.5 L 8142 1596 L 8496.5 1596 L 8498 1597.5 L 8498.5 1963 Q 8550.1 1873.6 8622.5 1805 Q 8735.1 1698.1 8891.5 1635 L 8968.5 1608 L 9046.5 1588 L 9096.5 1579 L 9132.5 1575 L 9133.5 1574 L 9163.5 1572 L 9164.5 1571 L 9176.5 1571 L 9177.5 1570 L 9192.5 1570 L 9193.5 1569 L 9215.5 1569 L 9216.5 1568 Z " /><path fill="rgb(27,101,97)" stroke="rgb(27,101,97)" stroke-width="1" opacity="0.996078431372549" d="M 10774.5 1568 L 10849.5 1568 L 10850.5 1569 L 10892.5 1570 L 10893.5 1571 L 10906.5 1571 L 10907.5 1572 L 10919.5 1572 L 10920.5 1573 L 10949.5 1575 L 10950.5 1576 L 10957.5 1576 L 10958.5 1577 L 10994.5 1581 L 11072.5 1596 L 11126.5 1610 L 11182.5 1628 Q 11367.2 1695.8 11491 1824.5 L 11323.5 2080 Q 11263.4 2024.1 11192.5 1979 Q 11130.7 1939.3 11057.5 1911 L 11020.5 1898 L 10982.5 1887 L 10915.5 1873 L 10909.5 1873 L 10887.5 1869 L 10870.5 1868 L 10869.5 1867 L 10846.5 1866 L 10845.5 1865 L 10828.5 1865 L 10827.5 1864 L 10758.5 1864 L 10757.5 1865 L 10741.5 1865 L 10740.5 1866 L 10719.5 1867 L 10718.5 1868 L 10710.5 1868 L 10709.5 1869 L 10702.5 1869 L 10701.5 1870 L 10675.5 1873 L 10627.5 1883 L 10594.5 1893 Q 10529.5 1916.5 10487 1962.5 Q 10462.4 1989.9 10451 2030.5 L 10447 2048.5 L 10445 2070.5 L 10444 2071.5 L 10444 2116.5 L 10450 2150.5 L 10459 2175.5 Q 10471.7 2202.3 10492.5 2221 Q 10514.2 2240.8 10540.5 2256 Q 10571.7 2274.3 10607.5 2288 L 10682.5 2315 L 10785.5 2349 L 10788.5 2349 L 10830.5 2363 L 10862.5 2371 L 10940.5 2394 L 11040.5 2426 L 11135.5 2460 L 11212.5 2491 Q 11276 2518.5 11330.5 2555 Q 11381.1 2588.9 11422 2632.5 Q 11470.6 2682.9 11495 2757.5 L 11504 2790.5 L 11511 2828.5 L 11512 2843.5 L 11513 2844.5 L 11514 2866.5 L 11515 2867.5 L 11515 2885.5 L 11516 2886.5 L 11516 2933.5 L 11515 2934.5 L 11515 2953.5 L 11514 2954.5 L 11514 2966.5 L 11513 2967.5 L 11512 2985.5 L 11511 2986.5 L 11510 3000.5 L 11503 3038.5 L 11493 3076.5 Q 11484.5 3105 11473 3130.5 Q 11430.8 3222.8 11360.5 3287 Q 11254.9 3384.9 11099.5 3433 L 11026.5 3452 L 10966.5 3463 L 10930.5 3467 L 10929.5 3468 L 10901.5 3470 L 10900.5 3471 L 10889.5 3471 L 10888.5 3472 L 10876.5 3472 L 10875.5 3473 L 10841.5 3474 L 10840.5 3475 L 10751.5 3476 L 10750.5 3475 L 10701.5 3474 L 10700.5 3473 L 10685.5 3473 L 10684.5 3472 L 10672.5 3472 L 10671.5 3471 L 10639.5 3469 L 10638.5 3468 L 10630.5 3468 L 10629.5 3467 L 10584.5 3462 L 10583.5 3461 L 10542.5 3455 L 10489.5 3444 L 10434.5 3430 L 10400.5 3420 L 10325.5 3394 Q 10119.1 3313.4 9978 3167.5 L 9978 3164.5 L 10119 2907 L 10208.5 2977 L 10288.5 3031 Q 10361.9 3077.1 10446.5 3112 Q 10486 3128 10528.5 3141 L 10580.5 3155 L 10623.5 3164 L 10653.5 3168 L 10654.5 3169 L 10660.5 3169 L 10661.5 3170 L 10686.5 3172 L 10687.5 3173 L 10696.5 3173 L 10697.5 3174 L 10725.5 3175 L 10726.5 3176 L 10772.5 3177 L 10773.5 3176 L 10824.5 3175 L 10825.5 3174 L 10836.5 3174 L 10837.5 3173 L 10864.5 3171 L 10865.5 3170 L 10878.5 3169 L 10906.5 3164 L 10946.5 3154 L 10986.5 3140 L 11020.5 3124 Q 11056.8 3104.8 11084 3076.5 Q 11113.3 3046.3 11127 3000.5 L 11134 2964.5 L 11135 2921.5 L 11134 2920.5 L 11134 2909.5 L 11130 2886.5 L 11119 2854.5 Q 11106.5 2828.5 11085.5 2811 Q 11059.1 2789.9 11027.5 2774 Q 10996.6 2758.4 10962.5 2746 L 10865.5 2715 L 10721.5 2673 L 10679.5 2662 L 10622.5 2643 L 10619.5 2643 L 10489.5 2597 L 10401.5 2561 L 10319.5 2522 L 10278.5 2498 Q 10222.8 2463.2 10179 2416.5 Q 10155.2 2390.8 10136 2360.5 Q 10117.7 2330.8 10105 2295.5 L 10092 2250.5 L 10086 2218.5 L 10084 2196.5 L 10083 2195.5 L 10083 2186.5 L 10082 2185.5 L 10082 2172.5 L 10081 2171.5 L 10080 2122.5 L 10081 2121.5 L 10081 2097.5 L 10082 2096.5 L 10082 2083.5 L 10083 2082.5 L 10084 2063.5 L 10085 2062.5 L 10087 2041.5 L 10093 2009.5 L 10102 1974.5 Q 10111 1944.5 10123 1917.5 Q 10142.9 1872.9 10170 1835.5 Q 10203.9 1788.4 10246.5 1750 Q 10295.2 1706.2 10354.5 1673 L 10421.5 1640 L 10484.5 1616 L 10554.5 1596 L 10630.5 1581 L 10636.5 1581 L 10658.5 1577 L 10665.5 1577 L 10666.5 1576 L 10673.5 1576 L 10674.5 1575 L 10703.5 1573 L 10704.5 1572 L 10730.5 1571 L 10731.5 1570 L 10748.5 1570 L 10749.5 1569 L 10773.5 1569 L 10774.5 1568 Z " /><path fill="rgb(27,101,97)" stroke="rgb(27,101,97)" stroke-width="1" opacity="0.996078431372549" d="M 13943.5 1572 L 14044.5 1572 L 14045.5 1573 L 14065.5 1573 L 14066.5 1574 L 14094.5 1575 L 14095.5 1576 L 14106.5 1576 L 14107.5 1577 L 14143.5 1580 L 14144.5 1581 L 14150.5 1581 L 14151.5 1582 L 14157.5 1582 L 14158.5 1583 L 14164.5 1583 L 14165.5 1584 L 14195.5 1588 L 14225.5 1594 L 14259.5 1602 L 14304.5 1615 Q 14341.6 1626.9 14375.5 1642 Q 14411.5 1658 14443.5 1678 Q 14499 1712.5 14542 1759.5 Q 14600.4 1821.6 14632 1910.5 L 14645 1955.5 L 14653 1997.5 L 14655 2020.5 L 14656 2021.5 L 14656 2030.5 L 14657 2031.5 L 14657 2043.5 L 14658 2044.5 L 14659 2098.5 L 14658 2099.5 L 14658 2118.5 L 14657 2119.5 L 14656 2142.5 L 14655 2143.5 L 14653 2165.5 L 14647 2198.5 L 14637 2237.5 Q 14628 2267 14616 2293.5 Q 14572.8 2386.3 14500.5 2450 Q 14426.2 2516.2 14329.5 2560 L 14274.5 2583 L 14229.5 2599 L 14169.5 2617 L 14113.5 2631 L 14055.5 2643 L 14050.5 2643 L 14044.5 2645 L 14039.5 2645 L 14033.5 2647 L 14028.5 2647 L 14003.5 2652 L 13997.5 2652 L 13990.5 2654 L 13984.5 2654 L 13955.5 2659 L 13948.5 2659 L 13947.5 2660 L 13940.5 2660 L 13939.5 2661 L 13932.5 2661 L 13931.5 2662 L 13924.5 2662 L 13923.5 2663 L 13887.5 2666 L 13886.5 2667 L 13877.5 2667 L 13876.5 2668 L 13866.5 2668 L 13865.5 2669 L 13855.5 2669 L 13854.5 2670 L 13831.5 2671 L 13830.5 2672 L 13788.5 2674 L 13787.5 2675 L 13771.5 2675 L 13770.5 2676 L 13752.5 2676 L 13751.5 2677 L 13704.5 2678 L 13703.5 2679 L 13669.5 2679 L 13668.5 2680 L 13493.5 2680 L 13492.5 2679 L 13451.5 2679 L 13450.5 2678 L 13418.5 2678 L 13417.5 2677 L 13364.5 2676 L 13363.5 2675 L 13344.5 2675 L 13343.5 2674 L 13329.5 2674 L 13328.5 2673 L 13316.5 2673 L 13315.5 2672 L 13303.5 2672 L 13297 2671 L 13297 2679.5 L 13296 2680.5 L 13296 2702.5 L 13295 2703.5 L 13295 2730.5 L 13296 2731.5 L 13297 2767.5 L 13298 2768.5 L 13299 2787.5 L 13300 2788.5 L 13300 2795.5 L 13301 2796.5 L 13304 2821.5 L 13313 2862.5 L 13327 2906.5 Q 13340.3 2942.7 13359 2973.5 L 13381 3005.5 Q 13393.6 3022.4 13409 3036.5 L 13409 3038 L 13410.5 3038 L 13437.5 3063 L 13468.5 3085 Q 13494 3101 13524.5 3112 L 13566.5 3124 L 13599.5 3130 L 13615.5 3131 L 13616.5 3132 L 13627.5 3132 L 13628.5 3133 L 13644.5 3133 L 13645.5 3134 L 13689.5 3134 L 13690.5 3133 L 13707.5 3133 L 13708.5 3132 L 13719.5 3132 L 13720.5 3131 L 13745.5 3129 L 13793.5 3120 L 13845.5 3105 L 13893.5 3086 Q 13999.3 3037.8 14074 2958.5 Q 14108.7 2921.7 14136.5 2878 L 14296.5 2926 L 14306.5 2930 L 14349.5 2942 L 14359.5 2946 L 14402.5 2958 L 14412.5 2962 L 14455.5 2974 L 14465.5 2978 L 14508.5 2990 L 14513 2992.5 Q 14449.9 3090.9 14365.5 3168 Q 14201.9 3319.4 13974.5 3407 L 13920.5 3426 L 13870.5 3441 L 13813.5 3455 L 13755.5 3466 L 13749.5 3466 L 13720.5 3471 L 13713.5 3471 L 13712.5 3472 L 13705.5 3472 L 13704.5 3473 L 13696.5 3473 L 13695.5 3474 L 13662.5 3476 L 13661.5 3477 L 13647.5 3477 L 13646.5 3478 L 13627.5 3478 L 13626.5 3479 L 13538.5 3479 L 13537.5 3478 L 13504.5 3477 L 13503.5 3476 L 13492.5 3476 L 13491.5 3475 L 13463.5 3473 L 13462.5 3472 L 13434.5 3469 L 13390.5 3461 L 13352.5 3452 L 13311.5 3440 L 13250.5 3417 Q 13115.9 3357.1 13022 3256.5 Q 12970.4 3201.6 12931 3134.5 L 12897 3069.5 L 12876 3019.5 L 12866 2991.5 L 12853 2948.5 L 12844 2912.5 L 12836 2872.5 L 12831 2834.5 L 12830 2833.5 L 12828 2808.5 L 12827 2807.5 L 12827 2798.5 L 12826 2797.5 L 12826 2787.5 L 12825 2786.5 L 12824 2758.5 L 12823 2757.5 L 12823 2734.5 L 12822 2733.5 L 12822 2665.5 L 12823 2664.5 L 12823 2641.5 L 12824 2640.5 L 12824 2627 L 12795.5 2625 L 12794.5 2624 L 12784.5 2624 L 12783.5 2623 L 12774.5 2623 L 12773.5 2622 L 12763.5 2622 L 12762.5 2621 L 12753.5 2621 L 12752.5 2620 L 12743.5 2620 L 12742.5 2619 L 12732.5 2619 L 12731.5 2618 L 12722.5 2618 L 12711.5 2616 L 12701.5 2616 L 12700.5 2615 L 12691.5 2615 L 12680.5 2613 L 12670.5 2613 L 12669.5 2612 L 12660.5 2612 L 12659.5 2611 L 12650.5 2611 L 12639.5 2609 L 12629.5 2609 L 12628.5 2608 L 12619.5 2608 L 12618.5 2607 L 12609.5 2607 L 12598.5 2605 L 12588.5 2605 L 12587.5 2604 L 12578.5 2604 L 12577.5 2603 L 12568.5 2603 L 12557.5 2601 L 12547.5 2601 L 12546.5 2600 L 12537.5 2600 L 12536.5 2599 L 12527.5 2599 L 12516.5 2597 L 12506.5 2597 L 12501 2595.5 L 12514 2530.5 L 12516 2525.5 L 12531 2446.5 L 12533 2441.5 L 12548 2362.5 L 12550 2357.5 L 12561 2298.5 L 12562.5 2297 L 12574.5 2297 L 12575.5 2298 L 12587.5 2298 L 12588.5 2299 L 12600.5 2299 L 12601.5 2300 L 12648.5 2303 L 12649.5 2304 L 12671.5 2305 L 12672.5 2306 L 12682.5 2306 L 12683.5 2307 L 12693.5 2307 L 12694.5 2308 L 12705.5 2308 L 12706.5 2309 L 12716.5 2309 L 12717.5 2310 L 12727.5 2310 L 12728.5 2311 L 12738.5 2311 L 12739.5 2312 L 12749.5 2312 L 12750.5 2313 L 12760.5 2313 L 12761.5 2314 L 12771.5 2314 L 12772.5 2315 L 12782.5 2315 L 12783.5 2316 L 12793.5 2316 L 12794.5 2317 L 12804.5 2317 L 12805.5 2318 L 12815.5 2318 L 12816.5 2319 L 12826.5 2319 L 12827.5 2320 L 12837.5 2320 L 12838.5 2321 L 12847.5 2321 L 12848.5 2322 L 12858.5 2322 L 12859.5 2323 L 12869.5 2323 L 12870.5 2324 L 12888 2325 L 12902 2286.5 L 12924 2236.5 Q 12958.4 2163.4 13001 2098.5 Q 13077.3 1982.8 13176.5 1890 Q 13329.1 1745.6 13538.5 1658 Q 13583.7 1639.2 13632.5 1624 L 13681.5 1610 L 13736.5 1597 L 13790.5 1587 L 13796.5 1587 L 13797.5 1586 L 13823.5 1583 L 13824.5 1582 L 13831.5 1582 L 13832.5 1581 L 13839.5 1581 L 13840.5 1580 L 13867.5 1578 L 13868.5 1577 L 13878.5 1577 L 13879.5 1576 L 13890.5 1576 L 13891.5 1575 L 13920.5 1574 L 13921.5 1573 L 13942.5 1573 L 13943.5 1572 Z M 13905 1917 L 13904 1918 L 13888 1918 L 13887 1919 L 13876 1919 L 13875 1920 L 13858 1921 L 13813 1929 L 13769 1941 L 13724 1958 Q 13629 2001 13559 2067 Q 13429 2187 13360 2369 L 13369 2369 L 13370 2370 L 13382 2370 L 13383 2371 L 13432 2373 L 13433 2374 L 13453 2374 L 13454 2375 L 13508 2376 L 13509 2377 L 13565 2377 L 13566 2378 L 13672 2377 L 13673 2376 L 13702 2376 L 13703 2375 L 13725 2375 L 13726 2374 L 13760 2373 L 13761 2372 L 13787 2371 L 13788 2370 L 13799 2370 L 13800 2369 L 13810 2369 L 13811 2368 L 13839 2366 L 13840 2365 L 13863 2363 L 13864 2362 L 13870 2362 L 13871 2361 L 13877 2361 L 13878 2360 L 13884 2360 L 13909 2355 L 13914 2355 L 13957 2346 L 13998 2335 L 14054 2315 Q 14102 2295 14139 2264 Q 14169 2238 14188 2200 Q 14197 2181 14201 2159 L 14202 2146 L 14203 2145 L 14203 2113 L 14204 2112 L 14202 2077 L 14195 2048 Q 14184 2017 14163 1996 Q 14143 1974 14117 1959 Q 14091 1945 14062 1935 L 14032 1927 L 14005 1922 L 13991 1921 L 13990 1920 L 13970 1919 L 13969 1918 L 13952 1918 L 13951 1917 L 13905 1917 Z " /><path fill="rgb(27,101,97)" stroke="rgb(27,101,97)" stroke-width="1" opacity="0.996078431372549" d="M 7478 1592 L 7878.5 1592 L 7880 1593.5 L 7880 3439.5 L 7879.5 3440 L 7478 3440 L 7478 1592 Z " /><path fill="rgb(27,101,97)" stroke="rgb(27,101,97)" stroke-width="1" opacity="0.996078431372549" d="M 17151.5 2953 L 17178.5 2953 L 17179.5 2954 L 17192.5 2954 L 17193.5 2955 L 17213.5 2957 Q 17246.4 2963.1 17273.5 2975 Q 17330.5 3000.5 17369 3044.5 Q 17403.8 3083.2 17423 3137.5 L 17431 3166.5 L 17434 3182.5 L 17435 3198.5 L 17436 3199.5 L 17436 3213.5 L 17437 3214.5 L 17437 3235.5 L 17436 3236.5 L 17435 3259.5 L 17430 3287.5 Q 17423.1 3315.6 17412 3339.5 Q 17388.8 3388.3 17351.5 3423 Q 17313.4 3459.4 17259.5 3480 L 17225.5 3490 L 17196.5 3495 L 17186.5 3495 L 17185.5 3496 L 17144.5 3496 L 17143.5 3495 L 17119.5 3493 L 17092.5 3487 L 17051.5 3472 Q 16997.8 3446.7 16961 3404.5 Q 16923.8 3363.7 16905 3304.5 L 16899 3281.5 L 16896 3264.5 L 16896 3257.5 L 16895 3256.5 L 16895 3247.5 L 16894 3246.5 L 16894 3202.5 L 16895 3201.5 L 16895 3192.5 L 16896 3191.5 L 16897 3178.5 L 16903 3151.5 Q 16910 3127.5 16920 3106.5 Q 16943.8 3058.3 16981.5 3024 Q 17014.7 2993.2 17059.5 2974 L 17090.5 2963 L 17106.5 2959 L 17129.5 2955 L 17150.5 2954 L 17151.5 2953 Z " /><path fill="rgb(27,101,97)" stroke="rgb(27,101,97)" stroke-width="1" opacity="0.996078431372549" d="M 15774 3685 L 15849.5 3685 L 15850 3686.5 L 15794.5 3774 L 15745.5 3760 L 15741 3757.5 L 15774 3685 Z " /><path fill="rgb(27,101,97)" stroke="rgb(27,101,97)" stroke-width="1" opacity="0.996078431372549" d="M 7624.5 3806 L 7652.5 3806 L 7653.5 3807 L 7673.5 3808 L 7697.5 3813 L 7718.5 3820 Q 7757.1 3836.4 7783 3865.5 Q 7796.8 3880.7 7806 3900.5 L 7741.5 3945 Q 7731.8 3923.7 7715.5 3909 Q 7697.8 3893.7 7672.5 3886 L 7645.5 3881 L 7625.5 3881 L 7602.5 3885 L 7580.5 3894 Q 7561.1 3905.1 7547 3921.5 Q 7527.5 3944.5 7518 3977.5 L 7512 4009.5 L 7512 4038.5 L 7518 4070.5 Q 7523.7 4089.8 7533 4105.5 Q 7545.5 4127.5 7564.5 4143 Q 7578.7 4154.8 7597.5 4162 L 7621.5 4168 L 7642.5 4169 L 7643.5 4168 L 7652.5 4168 L 7663.5 4166 L 7690.5 4157 Q 7711.4 4146.9 7726 4130.5 Q 7736.9 4118.6 7743 4103 L 7747.5 4104 L 7812 4142 L 7812 4145.5 L 7806 4157.5 L 7797 4171.5 L 7773.5 4196 Q 7743.4 4220.9 7701.5 4234 L 7665.5 4242 L 7628.5 4244 L 7627.5 4243 L 7613.5 4243 L 7612.5 4242 L 7593.5 4240 Q 7571 4235 7552.5 4226 Q 7513.5 4206.5 7486 4175.5 Q 7457 4143.5 7440 4099.5 L 7434 4081.5 L 7428 4054.5 L 7427 4037.5 L 7426 4036.5 L 7426 4005.5 L 7427 4004.5 L 7427 3994.5 L 7432 3967.5 L 7444 3932.5 Q 7463.7 3888.2 7497.5 3858 Q 7523.6 3834.6 7558.5 3820 L 7587.5 3811 L 7604.5 3808 L 7611.5 3808 L 7612.5 3807 L 7623.5 3807 L 7624.5 3806 Z " /><path fill="rgb(27,101,97)" stroke="rgb(27,101,97)" stroke-width="1" opacity="0.996078431372549" d="M 10388.5 3806 L 10415.5 3806 L 10416.5 3807 L 10434.5 3808 L 10457.5 3813 L 10477.5 3820 Q 10522.9 3839.6 10553 3874.5 Q 10581.8 3906.7 10598 3951.5 L 10605 3975.5 L 10609 3998.5 L 10609 4007.5 L 10610 4008.5 L 10610 4043.5 L 10609 4044.5 L 10609 4053.5 L 10608 4054.5 L 10607 4066.5 L 10603 4084.5 Q 10597.2 4106.2 10588 4124.5 Q 10569.5 4162 10540.5 4189 Q 10512.6 4215.6 10473.5 4231 L 10451.5 4238 L 10430.5 4242 L 10392.5 4244 L 10391.5 4243 L 10368.5 4242 L 10352.5 4239 Q 10332.8 4234.7 10316.5 4227 Q 10276 4208 10248 4176.5 Q 10219.5 4145 10203 4101.5 L 10195 4074.5 L 10191 4051.5 L 10191 4042.5 L 10190 4041.5 L 10190 4007.5 L 10191 4006.5 L 10191 3997.5 L 10192 3996.5 L 10193 3984.5 L 10198 3963.5 Q 10206.1 3936.6 10219 3914.5 Q 10238 3881.5 10265.5 3857 Q 10289.4 3835.9 10320.5 3822 L 10353.5 3811 L 10376.5 3807 L 10387.5 3807 L 10388.5 3806 Z M 10386 3882 L 10370 3885 L 10358 3889 Q 10337 3897 10323 3911 Q 10304 3928 10292 3952 L 10282 3978 L 10276 4010 L 10276 4041 L 10282 4073 Q 10292 4108 10314 4132 Q 10329 4148 10350 4158 L 10373 4166 L 10384 4168 L 10394 4168 L 10395 4169 L 10407 4169 L 10408 4168 L 10425 4167 L 10443 4162 Q 10461 4154 10476 4142 Q 10496 4124 10509 4099 L 10519 4072 L 10523 4054 L 10524 4038 L 10525 4037 L 10525 4013 L 10524 4012 L 10523 3997 L 10519 3979 L 10514 3964 Q 10503 3937 10485 3918 Q 10467 3898 10441 3888 L 10415 3882 L 10386 3882 Z " /><path fill="rgb(27,101,97)" stroke="rgb(27,101,97)" stroke-width="1" opacity="0.996078431372549" d="M 14409.5 3806 L 14450.5 3807 L 14451.5 3808 L 14458.5 3808 L 14475.5 3811 L 14494.5 3816 Q 14519.3 3823.2 14540.5 3834 L 14574 3853 L 14569 3865.5 L 14536.5 3923 L 14515.5 3908 L 14481.5 3892 L 14445.5 3882 L 14417.5 3880 L 14416.5 3881 L 14397.5 3882 L 14382.5 3886 Q 14369 3891 14361 3901.5 L 14354 3916.5 L 14353 3933.5 L 14355 3942.5 L 14358 3948.5 L 14366.5 3958 L 14373.5 3963 L 14395.5 3973 L 14439.5 3986 L 14476.5 3995 L 14515.5 4009 L 14542.5 4023 Q 14557 4032.5 14568 4045.5 Q 14580.5 4060 14586 4081.5 L 14589 4098.5 L 14589 4133.5 L 14585 4154.5 L 14575 4178.5 Q 14564.8 4196.3 14549.5 4209 Q 14536.5 4219.5 14520.5 4227 L 14491.5 4237 L 14463.5 4242 L 14455.5 4242 L 14454.5 4243 L 14421.5 4244 L 14420.5 4243 L 14393.5 4242 L 14392.5 4241 L 14373.5 4239 L 14332.5 4229 Q 14284.6 4213.9 14248 4187.5 L 14285.5 4115 L 14313.5 4134 Q 14339.1 4148.4 14369.5 4158 L 14392.5 4164 L 14411.5 4166 L 14412.5 4167 L 14448.5 4167 L 14449.5 4166 L 14460.5 4165 L 14473.5 4161 Q 14484.3 4156.8 14491 4148.5 Q 14499.5 4139 14499 4120.5 L 14497 4110.5 Q 14493.5 4101 14486.5 4095 L 14473.5 4086 L 14448.5 4075 L 14370.5 4053 L 14333.5 4039 Q 14304.1 4026.9 14285 4004.5 Q 14274 3992 14269 3973.5 L 14266 3958.5 L 14265 3935.5 L 14266 3934.5 L 14266 3921.5 L 14267 3920.5 L 14268 3909.5 L 14276 3884.5 Q 14286.8 3861.8 14304.5 3846 Q 14323.1 3829.1 14348.5 3819 L 14374.5 3811 L 14397.5 3807 L 14408.5 3807 L 14409.5 3806 Z " /><path fill="rgb(27,101,97)" stroke="rgb(27,101,97)" stroke-width="1" opacity="0.996078431372549" d="M 17210.5 3806 L 17249.5 3807 L 17250.5 3808 L 17267.5 3810 L 17292.5 3817 Q 17340.2 3835.8 17372 3870.5 Q 17401.7 3902.8 17419 3947.5 L 17426 3969.5 L 17431 3994.5 L 17432 4015.5 L 17433 4016.5 L 17433 4035.5 L 17432 4036.5 L 17432 4049.5 L 17431 4050.5 L 17431 4057.5 L 17428 4074.5 Q 17421.7 4101.2 17411 4123.5 Q 17390.6 4165.1 17357.5 4194 Q 17330.4 4217.9 17293.5 4232 L 17281.5 4236 L 17253.5 4242 L 17215.5 4244 L 17214.5 4243 L 17199.5 4243 L 17198.5 4242 L 17191.5 4242 L 17174.5 4239 L 17143.5 4229 Q 17097.4 4208.6 17067 4172.5 Q 17039.6 4140.9 17024 4097.5 L 17015 4062.5 L 17014 4048.5 L 17013 4047.5 L 17013 4034.5 L 17012 4033.5 L 17012 4016.5 L 17013 4015.5 L 17014 3993.5 L 17017 3977.5 Q 17021.7 3955.7 17030 3937.5 Q 17049.6 3893.1 17082.5 3862 Q 17106.5 3839 17138.5 3824 L 17168.5 3813 L 17185.5 3809 L 17198.5 3808 L 17199.5 3807 L 17209.5 3807 L 17210.5 3806 Z M 17209 3882 L 17189 3886 L 17178 3890 Q 17161 3897 17149 3908 Q 17127 3926 17114 3953 L 17104 3980 L 17100 3998 L 17099 4015 L 17098 4016 L 17099 4046 L 17105 4075 Q 17115 4105 17133 4128 Q 17150 4148 17177 4160 L 17200 4167 L 17217 4168 L 17218 4169 L 17241 4168 L 17268 4161 Q 17287 4152 17302 4139 Q 17319 4122 17331 4100 L 17342 4070 L 17347 4043 L 17347 4008 L 17346 4007 L 17344 3989 L 17340 3974 Q 17330 3944 17312 3923 Q 17294 3901 17266 3889 L 17250 3884 L 17239 3883 L 17238 3882 L 17209 3882 Z " /><path fill="rgb(27,101,97)" stroke="rgb(27,101,97)" stroke-width="1" opacity="0.996078431372549" d="M 8017 3809 L 8310.5 3809 L 8311 3809.5 L 8311 3883 L 8102 3883 L 8102 3986 L 8282 3986 L 8282 4055 L 8102 4055 L 8102 4166 L 8317 4166 L 8317 4241 L 8017 4241 L 8017 3809 Z " /><path fill="rgb(27,101,97)" stroke="rgb(27,101,97)" stroke-width="1" opacity="0.996078431372549" d="M 8530 3809 L 8598.5 3809 L 8600 3810.5 L 8818.5 4091 L 8819 3810 L 8902.5 3810 L 8903 3810.5 L 8903 4241 L 8833.5 4241 L 8832 4239.5 L 8615.5 3966 L 8615 4241 L 8530.5 4241 L 8530 4240.5 L 8530 3809 Z " /><path fill="rgb(27,101,97)" stroke="rgb(27,101,97)" stroke-width="1" opacity="0.996078431372549" d="M 9105 3809 L 9463.5 3809 L 9464 3809.5 L 9464 3883 L 9327 3883 L 9327 4240.5 L 9326.5 4241 L 9243 4241 L 9243 3883.5 L 9242.5 3883 L 9105 3883 L 9105 3809 Z " /><path fill="rgb(27,101,97)" stroke="rgb(27,101,97)" stroke-width="1" opacity="0.996078431372549" d="M 9666 3809 L 9867.5 3809 L 9868.5 3810 L 9876.5 3810 L 9891.5 3813 L 9918.5 3824 Q 9940.1 3835.9 9956 3853.5 Q 9979.1 3878.4 9990 3915.5 L 9994 3936.5 L 9994 3969.5 L 9989 3994.5 L 9977 4023.5 Q 9965.9 4043.4 9949.5 4058 Q 9935.9 4070.9 9917 4078.5 L 10013 4235.5 L 10015 4241 L 9922.5 4241 L 9921 4239.5 L 9834 4096 L 9751 4096 L 9751 4241 L 9666 4241 L 9666 3809 Z M 9751 3883 L 9751 4022 L 9860 4022 L 9872 4019 L 9884 4012 Q 9893 4004 9899 3994 L 9906 3978 L 9909 3963 L 9909 3943 L 9907 3933 Q 9902 3914 9890 3902 Q 9880 3889 9862 3884 Q 9855 3886 9854 3883 L 9751 3883 Z " /><path fill="rgb(27,101,97)" stroke="rgb(27,101,97)" stroke-width="1" opacity="0.996078431372549" d="M 11112 3809 L 11196 3809 L 11196 4046.5 L 11197 4047.5 L 11197 4056.5 L 11198 4057.5 L 11200 4075.5 L 11210 4108.5 Q 11220 4133 11238.5 4149 Q 11250.9 4159.6 11268.5 4165 L 11283.5 4168 L 11306.5 4169 L 11307.5 4168 L 11317.5 4168 L 11328.5 4166 L 11340.5 4162 Q 11361.6 4152.6 11375 4135.5 Q 11386.2 4121.7 11393 4103.5 L 11399 4084.5 L 11404 4055.5 L 11404 4045.5 L 11405 4044.5 L 11405 3809 L 11489 3809 L 11489 4048.5 L 11488 4049.5 L 11488 4061.5 L 11487 4062.5 L 11487 4070.5 L 11486 4071.5 L 11483 4094.5 L 11478 4114.5 L 11470 4137.5 Q 11453.9 4176.9 11424.5 4203 Q 11399.6 4225.1 11363.5 4236 L 11346.5 4240 L 11326.5 4242 L 11325.5 4243 L 11292.5 4244 L 11291.5 4243 L 11275.5 4243 L 11274.5 4242 L 11259.5 4241 L 11240.5 4237 L 11217.5 4229 Q 11183.5 4214 11161 4187.5 Q 11142.6 4165.9 11131 4137.5 L 11122 4111.5 L 11114 4071.5 L 11113 4052.5 L 11112 4051.5 L 11112 3809 Z " /><path fill="rgb(27,101,97)" stroke="rgb(27,101,97)" stroke-width="1" opacity="0.996078431372549" d="M 11722 3809 L 11789.5 3809 L 11792 3811.5 L 12010.5 4091 L 12011 3810 L 12094.5 3810 L 12095 3810.5 L 12095 4241 L 12024.5 4241 L 12024 4239.5 L 11806.5 3966 L 11806 4241 L 11722.5 4241 L 11722 4240.5 L 11722 3809 Z " /><path fill="rgb(27,101,97)" stroke="rgb(27,101,97)" stroke-width="1" opacity="0.996078431372549" d="M 12333 3809 L 12417.5 3809 L 12418 3809.5 L 12418 4241 L 12333.5 4241 L 12333 4240.5 L 12333 3809 Z " /><path fill="rgb(27,101,97)" stroke="rgb(27,101,97)" stroke-width="1" opacity="0.996078431372549" d="M 12612 3809 L 12700.5 3809 L 12701 3810.5 L 12816.5 4139 L 12919 3841.5 L 12921 3838.5 L 12929 3812.5 L 12931.5 3809 L 13020 3809.5 L 12856.5 4241 L 12775.5 4241 L 12775 4238.5 L 12612 3809 Z " /><path fill="rgb(27,101,97)" stroke="rgb(27,101,97)" stroke-width="1" opacity="0.996078431372549" d="M 13214 3809 L 13508.5 3809 L 13509 3809.5 L 13509 3883 L 13299 3883 L 13299 3986 L 13480 3986 L 13480 4055 L 13299 4055 L 13299 4166 L 13514 4166 L 13514 4241 L 13214 4241 L 13214 3809 Z " /><path fill="rgb(27,101,97)" stroke="rgb(27,101,97)" stroke-width="1" opacity="0.996078431372549" d="M 13728 3809 L 13929.5 3809 L 13930.5 3810 L 13938.5 3810 L 13962.5 3816 L 13985.5 3827 Q 14006.1 3839.4 14021 3857.5 Q 14041 3880.5 14051 3913.5 L 14056 3940.5 L 14056 3965.5 L 14055 3966.5 L 14054 3980.5 L 14050 3996.5 L 14038 4024.5 Q 14025.5 4046.5 14006.5 4062 Q 13994.3 4071.8 13979 4078.5 L 14077 4241 L 13983.5 4241 L 13983 4239.5 L 13894.5 4096 L 13812 4096 L 13812 4241 L 13728 4241 L 13728 3809 Z M 13812 3883 L 13812 4022 L 13922 4022 L 13934 4019 L 13948 4010 Q 13959 4000 13965 3985 L 13969 3973 L 13970 3960 L 13971 3959 L 13971 3947 L 13968 3931 Q 13963 3916 13955 3906 Q 13944 3890 13923 3884 Q 13917 3886 13916 3883 L 13812 3883 Z " /><path fill="rgb(27,101,97)" stroke="rgb(27,101,97)" stroke-width="1" opacity="0.996078431372549" d="M 14801 3809 L 14884.5 3809 L 14885 3809.5 L 14885 4241 L 14801.5 4241 L 14801 4240.5 L 14801 3809 Z " /><path fill="rgb(27,101,97)" stroke="rgb(27,101,97)" stroke-width="1" opacity="0.996078431372549" d="M 15086 3809 L 15444.5 3809 L 15445 3809.5 L 15445 3883 L 15308 3883 L 15308 4240.5 L 15307.5 4241 L 15224 4241 L 15224 3883.5 L 15223.5 3883 L 15086 3883 L 15086 3809 Z " /><path fill="rgb(27,101,97)" stroke="rgb(27,101,97)" stroke-width="1" opacity="0.996078431372549" d="M 15724 3809 L 15809.5 3809 L 15811 3810.5 L 15960 4215.5 L 15968 4237.5 L 15968 4241 L 15881.5 4241 L 15881 4238.5 L 15846 4133 L 15688.5 4133 L 15688 4135.5 L 15653 4241 L 15566.5 4241 L 15566 4237.5 L 15724 3809 Z M 15768 3899 L 15761 3916 L 15709 4074 L 15826 4074 L 15768 3899 Z " /><path fill="rgb(27,101,97)" stroke="rgb(27,101,97)" stroke-width="1" opacity="0.996078431372549" d="M 16164 3809 L 16365.5 3809 L 16366.5 3810 L 16374.5 3810 L 16398.5 3816 L 16421.5 3827 Q 16441.9 3839.6 16457 3857.5 Q 16477 3880.5 16487 3913.5 L 16492 3940.5 L 16492 3965.5 L 16491 3966.5 L 16490 3980.5 L 16486 3996.5 L 16474 4024.5 Q 16461.9 4045.9 16443.5 4061 Q 16431 4071.5 16415 4078.5 L 16513 4241 L 16419.5 4241 L 16419 4239.5 L 16330.5 4096 L 16248 4096 L 16248 4241 L 16164 4241 L 16164 3809 Z M 16248 3883 L 16248 4022 L 16358 4022 L 16370 4019 L 16384 4010 Q 16395 4000 16401 3985 L 16405 3973 L 16406 3960 L 16407 3959 L 16407 3947 L 16404 3931 Q 16399 3916 16391 3906 Q 16380 3890 16359 3884 Q 16353 3886 16352 3883 L 16248 3883 Z " /><path fill="rgb(27,101,97)" stroke="rgb(27,101,97)" stroke-width="1" opacity="0.996078431372549" d="M 16716 3809 L 16800.5 3809 L 16801 3809.5 L 16801 4241 L 16716.5 4241 L 16716 4240.5 L 16716 3809 Z " /><path fill="rgb(0,0,0)" stroke="rgb(0,0,0)" stroke-width="1" opacity="0" d="M 0 0 L 20138.5 0 L 20139 0.5 L 20139 4742 L 0.5 4742 L 0 4741.5 L 0 0 Z M 4995 323 L 4994 324 L 4974 324 L 4973 325 L 4935 327 L 4934 328 L 4907 330 L 4906 331 L 4899 331 L 4877 335 L 4871 335 L 4811 346 L 4760 358 L 4707 373 L 4642 395 Q 4583 416 4530 442 Q 4412 498 4311 569 Q 4190 652 4087 752 Q 4008 826 3939 909 L 3908 903 L 3902 903 L 3889 900 L 3883 900 L 3876 898 L 3870 898 L 3863 896 L 3829 892 L 3828 891 L 3821 891 L 3806 888 L 3767 884 L 3766 883 L 3758 883 L 3749 881 L 3713 878 L 3712 877 L 3659 873 L 3658 872 L 3646 872 L 3645 871 L 3633 871 L 3632 870 L 3619 870 L 3618 869 L 3567 867 L 3566 866 L 3543 866 L 3542 865 L 3510 865 L 3509 864 L 3415 864 L 3414 865 L 3384 865 L 3383 866 L 3345 867 L 3344 868 L 3330 868 L 3329 869 L 3317 869 L 3316 870 L 3284 872 L 3283 873 L 3275 873 L 3274 874 L 3266 874 L 3265 875 L 3242 877 L 3241 878 L 3234 878 L 3233 879 L 3220 880 L 3183 887 L 3178 887 L 3130 897 L 3090 907 L 3059 916 L 3007 934 Q 2969 948 2935 966 Q 2861 1004 2804 1057 Q 2728 1126 2685 1228 L 2667 1278 L 2655 1324 L 2645 1382 L 2643 1410 L 2642 1411 L 2642 1423 L 2641 1424 L 2641 1440 L 2640 1441 L 2640 1517 L 2641 1518 L 2641 1536 L 2642 1537 L 2643 1562 L 2644 1563 L 2644 1573 L 2645 1574 L 2645 1583 L 2646 1584 L 2648 1608 L 2649 1609 L 2649 1615 L 2650 1616 L 2650 1622 L 2651 1623 L 2651 1629 L 2652 1630 L 2652 1636 L 2657 1661 L 2657 1666 L 2666 1712 L 2684 1787 L 2713 1885 L 2749 1987 Q 2788 2089 2834 2186 Q 2727 2249 2629 2320 Q 2542 2382 2466 2454 Q 2412 2504 2364 2560 Q 2329 2601 2298 2647 Q 2273 2685 2254 2730 L 2246 2752 L 2239 2777 L 2235 2799 L 2235 2806 L 2234 2807 L 2234 2818 L 2233 2819 L 2234 2852 L 2235 2853 L 2235 2860 L 2239 2882 Q 2246 2910 2257 2935 Q 2272 2967 2291 2996 Q 2316 3031 2345 3063 Q 2375 3094 2409 3121 Q 2451 3155 2499 3184 Q 2595 3244 2709 3287 L 2761 3306 L 2829 3328 L 2896 3347 L 2956 3362 L 2960 3362 L 3014 3375 L 3028 3377 L 3033 3379 L 3095 3391 L 3100 3391 L 3106 3393 L 3111 3393 L 3117 3395 L 3122 3395 L 3128 3397 L 3181 3405 L 3182 3406 L 3188 3406 L 3201 3409 L 3207 3409 L 3214 3411 L 3220 3411 L 3234 3414 L 3240 3414 L 3241 3415 L 3247 3415 L 3248 3416 L 3254 3416 L 3255 3417 L 3261 3417 L 3262 3418 L 3286 3421 L 3287 3424 L 3288 3444 L 3289 3445 L 3291 3471 L 3292 3472 L 3296 3508 L 3307 3569 L 3319 3619 L 3338 3680 L 3358 3730 L 3387 3787 Q 3415 3835 3451 3876 Q 3532 3966 3656 4014 L 3714 4033 L 3779 4048 L 3808 4052 L 3809 4053 L 3815 4053 L 3816 4054 L 3822 4054 L 3823 4055 L 3847 4057 L 3848 4058 L 3857 4058 L 3858 4059 L 3895 4061 L 3896 4062 L 3914 4062 L 3915 4063 L 3946 4063 L 3947 4064 L 4035 4063 L 4036 4062 L 4076 4061 L 4077 4060 L 4092 4060 L 4093 4059 L 4131 4057 L 4132 4056 L 4174 4053 L 4175 4052 L 4193 4051 L 4202 4049 L 4210 4049 L 4211 4048 L 4219 4048 L 4236 4045 L 4243 4045 L 4244 4044 L 4251 4044 L 4252 4043 L 4259 4043 L 4274 4040 L 4281 4040 L 4310 4035 L 4316 4035 L 4323 4033 L 4329 4033 L 4330 4032 L 4336 4032 L 4343 4030 L 4349 4030 L 4356 4028 L 4362 4028 L 4363 4027 L 4370 4027 Q 4460 4080 4561 4123 L 4640 4154 L 4725 4182 L 4812 4205 L 4908 4224 L 4914 4224 L 4934 4228 L 4955 4230 L 4956 4231 L 4963 4231 L 4964 4232 L 5000 4235 L 5001 4236 L 5011 4236 L 5012 4237 L 5053 4239 L 5054 4240 L 5073 4240 L 5074 4241 L 5110 4241 L 5111 4242 L 5181 4241 L 5182 4240 L 5201 4240 L 5202 4239 L 5229 4238 L 5230 4237 L 5241 4237 L 5242 4236 L 5252 4236 L 5253 4235 L 5287 4232 L 5288 4231 L 5294 4231 L 5295 4230 L 5301 4230 L 5302 4229 L 5308 4229 L 5309 4228 L 5315 4228 L 5340 4223 L 5345 4223 L 5390 4214 L 5439 4202 L 5496 4185 L 5544 4168 Q 5654 4125 5749 4065 Q 5857 3996 5949 3909 Q 6240 3631 6374 3196 Q 6497 3148 6607 3084 Q 6700 3029 6779 2959 Q 6818 2923 6851 2882 Q 6881 2843 6905 2799 L 6926 2752 L 6940 2708 L 6948 2670 L 6950 2648 L 6951 2647 L 6951 2638 L 6952 2637 L 6952 2622 L 6953 2621 L 6952 2566 L 6951 2565 L 6949 2538 L 6944 2513 L 6944 2508 L 6935 2470 L 6927 2443 Q 6915 2406 6900 2373 Q 6866 2299 6823 2236 Q 6774 2162 6714 2099 Q 6551 1926 6326 1816 L 6323 1812 L 6313 1765 L 6307 1744 L 6307 1740 L 6276 1621 L 6246 1518 L 6222 1445 L 6222 1442 L 6198 1371 L 6165 1282 Q 6138 1211 6107 1145 Q 6043 1005 5963 883 Q 5890 771 5801 676 Q 5722 591 5628 521 Q 5538 455 5430 407 L 5376 385 L 5320 366 L 5262 350 L 5258 350 L 5216 340 L 5211 340 L 5175 333 L 5162 332 L 5161 331 L 5128 328 L 5127 327 L 5117 327 L 5116 326 L 5105 326 L 5104 325 L 5069 324 L 5068 323 L 4995 323 Z M 16186 868 L 16186 1944 Q 16142 1869 16084 1810 Q 15986 1709 15851 1647 Q 15816 1632 15779 1620 L 15718 1604 L 15674 1596 L 15652 1594 L 15651 1593 L 15621 1591 L 15620 1590 L 15576 1589 L 15575 1588 L 15501 1590 L 15500 1591 L 15477 1592 L 15476 1593 L 15467 1593 L 15466 1594 L 15436 1597 L 15382 1607 L 15357 1613 L 15322 1623 L 15284 1636 Q 15211 1663 15151 1702 Q 15085 1744 15030 1795 Q 14893 1922 14814 2108 L 14795 2156 L 14780 2200 L 14768 2241 L 14753 2304 L 14743 2360 L 14739 2396 L 14738 2397 L 14736 2424 L 14735 2425 L 14735 2435 L 14734 2436 L 14734 2448 L 14733 2449 L 14733 2462 L 14732 2463 L 14731 2509 L 14730 2510 L 14730 2571 L 14731 2572 L 14732 2616 L 14733 2617 L 14733 2631 L 14734 2632 L 14735 2654 L 14736 2655 L 14736 2663 L 14737 2664 L 14737 2672 L 14738 2673 L 14738 2681 L 14739 2682 L 14742 2710 L 14753 2771 L 14765 2821 L 14775 2856 L 14790 2901 Q 14861 3095 14990 3232 Q 15101 3353 15262 3425 Q 15305 3444 15353 3459 L 15409 3474 L 15453 3483 L 15484 3487 L 15485 3488 L 15508 3490 L 15509 3491 L 15518 3491 L 15519 3492 L 15528 3492 L 15529 3493 L 15555 3494 L 15556 3495 L 15576 3495 L 15577 3496 L 15650 3496 L 15651 3495 L 15668 3495 L 15669 3494 L 15692 3493 L 15693 3492 L 15701 3492 L 15702 3491 L 15710 3491 L 15711 3490 L 15732 3488 L 15776 3480 L 15810 3472 L 15875 3452 Q 15952 3424 16018 3385 Q 16080 3348 16132 3300 Q 16207 3231 16261 3139 L 16261 3153 L 16262 3154 L 16262 3169 L 16263 3170 L 16263 3186 L 16264 3187 L 16264 3202 L 16265 3203 L 16265 3219 L 16266 3220 L 16266 3235 L 16267 3236 L 16267 3252 L 16268 3253 L 16268 3262 L 16269 3263 L 16270 3275 L 16275 3297 Q 16282 3320 16292 3341 Q 16307 3368 16327 3391 Q 16365 3432 16420 3456 L 16456 3469 L 16476 3474 L 16504 3479 L 16521 3480 L 16522 3481 L 16534 3481 L 16535 3482 L 16625 3482 L 16626 3481 L 16652 3480 L 16653 3479 L 16671 3478 L 16672 3477 L 16679 3477 L 16680 3476 L 16687 3476 L 16716 3471 L 16722 3471 L 16774 3461 L 16776 3461 L 16776 3074 L 16775 3072 L 16769 3072 L 16753 3069 L 16733 3063 Q 16715 3056 16702 3045 Q 16683 3029 16675 3002 L 16669 2975 L 16668 2958 L 16667 2957 L 16667 2939 L 16666 2938 L 16666 869 L 16666 868 L 16186 868 Z M 7665 919 L 7664 920 L 7644 921 L 7621 925 L 7598 931 L 7576 939 Q 7530 958 7497 989 Q 7455 1026 7430 1081 L 7420 1107 L 7413 1133 L 7409 1156 L 7408 1177 L 7407 1178 L 7407 1204 L 7408 1205 L 7408 1218 L 7409 1219 L 7410 1233 L 7415 1258 L 7423 1284 Q 7442 1334 7475 1371 Q 7511 1412 7564 1437 L 7591 1448 L 7611 1454 L 7641 1460 L 7659 1461 L 7660 1462 L 7698 1462 L 7699 1461 L 7717 1460 L 7751 1453 L 7773 1446 Q 7827 1425 7866 1388 Q 7904 1352 7927 1302 L 7941 1263 L 7947 1236 L 7949 1212 L 7950 1211 L 7950 1172 L 7949 1171 L 7948 1153 L 7944 1131 L 7935 1100 Q 7916 1048 7883 1012 Q 7842 964 7780 938 L 7750 928 L 7722 922 L 7707 921 L 7706 920 L 7694 920 L 7693 919 L 7665 919 Z M 11813 986 L 11813 1596 L 11565 1596 L 11565 1899 L 11813 1899 L 11813 3077 L 11814 3078 L 11814 3099 L 11815 3100 L 11815 3112 L 11816 3113 L 11817 3131 L 11825 3177 L 11833 3207 L 11841 3230 Q 11866 3293 11909 3339 Q 11964 3400 12046 3434 L 12096 3452 L 12143 3464 L 12170 3469 L 12191 3471 L 12192 3472 L 12224 3474 L 12225 3475 L 12245 3475 L 12246 3476 L 12288 3476 L 12289 3475 L 12313 3475 L 12314 3474 L 12329 3474 L 12330 3473 L 12353 3472 L 12354 3471 L 12371 3470 L 12372 3469 L 12379 3469 L 12380 3468 L 12412 3464 L 12461 3454 L 12537 3434 L 12599 3414 L 12694 3377 L 12745 3355 L 12752 3351 L 12748 3340 L 12744 3322 L 12740 3311 L 12736 3293 L 12732 3282 L 12728 3264 L 12724 3253 L 12720 3235 L 12673 3068 L 12672 3061 L 12668 3050 L 12667 3042 L 12583 3078 L 12532 3097 L 12503 3105 L 12479 3110 L 12452 3113 L 12451 3114 L 12442 3114 L 12441 3115 L 12428 3115 L 12427 3116 L 12385 3116 L 12384 3115 L 12374 3115 L 12373 3114 L 12360 3113 L 12338 3108 Q 12294 3095 12265 3069 Q 12238 3046 12223 3012 L 12211 2975 L 12207 2954 L 12206 2938 L 12205 2937 L 12205 1899 L 12848 1899 L 12848 1596 L 12205 1596 L 12205 986 L 11813 986 Z M 9217 1568 L 9216 1569 L 9194 1569 L 9193 1570 L 9178 1570 L 9177 1571 L 9165 1571 L 9164 1572 L 9134 1574 L 9133 1575 L 9097 1579 L 9047 1588 L 8969 1608 L 8892 1635 Q 8735 1698 8623 1805 Q 8550 1874 8499 1963 L 8498 1598 L 8497 1596 L 8142 1596 L 8142 3440 L 8143 3440 L 8533 3440 L 8533 2346 Q 8557 2274 8594 2216 Q 8630 2159 8675 2113 Q 8753 2032 8856 1977 Q 8886 1961 8920 1948 L 8966 1933 L 9017 1922 L 9039 1920 L 9040 1919 L 9049 1919 L 9050 1918 L 9065 1918 L 9066 1917 L 9109 1917 L 9110 1918 L 9123 1918 L 9124 1919 L 9141 1920 L 9169 1925 L 9210 1937 Q 9237 1947 9260 1962 L 9280 1976 L 9304 1998 L 9305 1998 L 9334 2033 L 9355 2066 L 9374 2106 L 9389 2149 L 9402 2201 L 9409 2241 L 9410 2254 L 9411 2255 L 9413 2279 L 9414 2280 L 9414 2289 L 9415 2290 L 9415 2300 L 9416 2301 L 9416 2313 L 9417 2314 L 9418 2346 L 9419 2347 L 9419 2374 L 9420 2375 L 9420 3440 L 9808 3440 L 9808 2276 L 9807 2275 L 9806 2224 L 9805 2223 L 9805 2208 L 9804 2207 L 9804 2193 L 9803 2192 L 9801 2157 L 9800 2156 L 9797 2120 L 9796 2119 L 9796 2112 L 9794 2104 L 9791 2076 L 9780 2013 L 9766 1955 L 9748 1899 Q 9727 1840 9697 1790 Q 9671 1746 9637 1711 Q 9571 1641 9474 1603 Q 9443 1592 9410 1584 L 9354 1574 L 9329 1572 L 9328 1571 L 9317 1571 L 9316 1570 L 9303 1570 L 9302 1569 L 9282 1569 L 9281 1568 L 9217 1568 Z M 10775 1568 L 10774 1569 L 10750 1569 L 10749 1570 L 10732 1570 L 10731 1571 L 10705 1572 L 10704 1573 L 10675 1575 L 10674 1576 L 10667 1576 L 10666 1577 L 10659 1577 L 10637 1581 L 10631 1581 L 10555 1596 L 10485 1616 L 10422 1640 L 10355 1673 Q 10295 1706 10247 1750 Q 10204 1788 10170 1836 Q 10143 1873 10123 1918 Q 10111 1944 10102 1975 L 10093 2010 L 10087 2042 L 10085 2063 L 10084 2064 L 10083 2083 L 10082 2084 L 10082 2097 L 10081 2098 L 10081 2122 L 10080 2123 L 10081 2172 L 10082 2173 L 10082 2186 L 10083 2187 L 10083 2196 L 10084 2197 L 10086 2219 L 10092 2251 L 10105 2296 Q 10118 2331 10136 2361 Q 10155 2391 10179 2417 Q 10223 2463 10279 2498 L 10320 2522 L 10402 2561 L 10490 2597 L 10620 2643 L 10623 2643 L 10680 2662 L 10722 2673 L 10866 2715 L 10963 2746 Q 10997 2758 11028 2774 Q 11059 2790 11086 2811 Q 11106 2829 11119 2855 L 11130 2887 L 11134 2910 L 11134 2921 L 11135 2922 L 11134 2965 L 11127 3001 Q 11113 3046 11084 3077 Q 11057 3105 11021 3124 L 10987 3140 L 10947 3154 L 10907 3164 L 10879 3169 L 10866 3170 L 10865 3171 L 10838 3173 L 10837 3174 L 10826 3174 L 10825 3175 L 10774 3176 L 10773 3177 L 10727 3176 L 10726 3175 L 10698 3174 L 10697 3173 L 10688 3173 L 10687 3172 L 10662 3170 L 10661 3169 L 10655 3169 L 10654 3168 L 10624 3164 L 10581 3155 L 10529 3141 Q 10486 3128 10447 3112 Q 10362 3077 10289 3031 L 10209 2977 L 10119 2907 L 9978 3165 L 9978 3168 Q 10119 3313 10326 3394 L 10401 3420 L 10435 3430 L 10490 3444 L 10543 3455 L 10584 3461 L 10585 3462 L 10630 3467 L 10631 3468 L 10639 3468 L 10640 3469 L 10672 3471 L 10673 3472 L 10685 3472 L 10686 3473 L 10701 3473 L 10702 3474 L 10751 3475 L 10752 3476 L 10841 3475 L 10842 3474 L 10876 3473 L 10877 3472 L 10889 3472 L 10890 3471 L 10901 3471 L 10902 3470 L 10930 3468 L 10931 3467 L 10967 3463 L 11027 3452 L 11100 3433 Q 11255 3385 11361 3287 Q 11431 3223 11473 3131 Q 11484 3105 11493 3077 L 11503 3039 L 11510 3001 L 11511 2987 L 11512 2986 L 11513 2968 L 11514 2967 L 11514 2955 L 11515 2954 L 11515 2935 L 11516 2934 L 11516 2887 L 11515 2886 L 11515 2868 L 11514 2867 L 11513 2845 L 11512 2844 L 11511 2829 L 11504 2791 L 11495 2758 Q 11471 2683 11422 2633 Q 11381 2589 11331 2555 Q 11276 2519 11213 2491 L 11136 2460 L 11041 2426 L 10941 2394 L 10863 2371 L 10831 2363 L 10789 2349 L 10786 2349 L 10683 2315 L 10608 2288 Q 10572 2274 10541 2256 Q 10514 2241 10493 2221 Q 10472 2202 10459 2176 L 10450 2151 L 10444 2117 L 10444 2072 L 10445 2071 L 10447 2049 L 10451 2031 Q 10462 1990 10487 1963 Q 10530 1917 10595 1893 L 10628 1883 L 10676 1873 L 10702 1870 L 10703 1869 L 10710 1869 L 10711 1868 L 10719 1868 L 10720 1867 L 10741 1866 L 10742 1865 L 10758 1865 L 10759 1864 L 10828 1864 L 10829 1865 L 10846 1865 L 10847 1866 L 10870 1867 L 10871 1868 L 10888 1869 L 10910 1873 L 10916 1873 L 10983 1887 L 11021 1898 L 11058 1911 Q 11131 1939 11193 1979 Q 11263 2024 11324 2080 L 11491 1825 Q 11367 1696 11183 1628 L 11127 1610 L 11073 1596 L 10995 1581 L 10959 1577 L 10958 1576 L 10951 1576 L 10950 1575 L 10921 1573 L 10920 1572 L 10908 1572 L 10907 1571 L 10894 1571 L 10893 1570 L 10851 1569 L 10850 1568 L 10775 1568 Z M 13944 1572 L 13943 1573 L 13922 1573 L 13921 1574 L 13892 1575 L 13891 1576 L 13880 1576 L 13879 1577 L 13869 1577 L 13868 1578 L 13841 1580 L 13840 1581 L 13833 1581 L 13832 1582 L 13825 1582 L 13824 1583 L 13798 1586 L 13797 1587 L 13791 1587 L 13737 1597 L 13682 1610 L 13633 1624 Q 13584 1639 13539 1658 Q 13329 1746 13177 1890 Q 13077 1983 13001 2099 Q 12958 2163 12924 2237 L 12902 2287 L 12888 2325 L 12871 2324 L 12870 2323 L 12860 2323 L 12859 2322 L 12849 2322 L 12848 2321 L 12839 2321 L 12838 2320 L 12828 2320 L 12827 2319 L 12817 2319 L 12816 2318 L 12806 2318 L 12805 2317 L 12795 2317 L 12794 2316 L 12784 2316 L 12783 2315 L 12773 2315 L 12772 2314 L 12762 2314 L 12761 2313 L 12751 2313 L 12750 2312 L 12740 2312 L 12739 2311 L 12729 2311 L 12728 2310 L 12718 2310 L 12717 2309 L 12707 2309 L 12706 2308 L 12695 2308 L 12694 2307 L 12684 2307 L 12683 2306 L 12673 2306 L 12672 2305 L 12650 2304 L 12649 2303 L 12602 2300 L 12601 2299 L 12589 2299 L 12588 2298 L 12576 2298 L 12575 2297 L 12563 2297 L 12561 2299 L 12550 2358 L 12548 2363 L 12533 2442 L 12531 2447 L 12516 2526 L 12514 2531 L 12501 2596 L 12507 2597 L 12517 2597 L 12528 2599 L 12537 2599 L 12538 2600 L 12547 2600 L 12548 2601 L 12558 2601 L 12569 2603 L 12578 2603 L 12579 2604 L 12588 2604 L 12589 2605 L 12599 2605 L 12610 2607 L 12619 2607 L 12620 2608 L 12629 2608 L 12630 2609 L 12640 2609 L 12651 2611 L 12660 2611 L 12661 2612 L 12670 2612 L 12671 2613 L 12681 2613 L 12692 2615 L 12701 2615 L 12702 2616 L 12712 2616 L 12723 2618 L 12732 2618 L 12733 2619 L 12743 2619 L 12744 2620 L 12753 2620 L 12754 2621 L 12763 2621 L 12764 2622 L 12774 2622 L 12775 2623 L 12784 2623 L 12785 2624 L 12795 2624 L 12796 2625 L 12824 2627 L 12824 2641 L 12823 2642 L 12823 2665 L 12822 2666 L 12822 2734 L 12823 2735 L 12823 2758 L 12824 2759 L 12825 2787 L 12826 2788 L 12826 2798 L 12827 2799 L 12827 2808 L 12828 2809 L 12830 2834 L 12831 2835 L 12836 2873 L 12844 2913 L 12853 2949 L 12866 2992 L 12876 3020 L 12897 3070 L 12931 3135 Q 12970 3202 13022 3257 Q 13116 3357 13251 3417 L 13312 3440 L 13353 3452 L 13391 3461 L 13435 3469 L 13463 3472 L 13464 3473 L 13492 3475 L 13493 3476 L 13504 3476 L 13505 3477 L 13538 3478 L 13539 3479 L 13627 3479 L 13628 3478 L 13647 3478 L 13648 3477 L 13662 3477 L 13663 3476 L 13696 3474 L 13697 3473 L 13705 3473 L 13706 3472 L 13713 3472 L 13714 3471 L 13721 3471 L 13750 3466 L 13756 3466 L 13814 3455 L 13871 3441 L 13921 3426 L 13975 3407 Q 14202 3319 14366 3168 Q 14450 3091 14513 2993 L 14509 2990 L 14466 2978 L 14456 2974 L 14413 2962 L 14403 2958 L 14360 2946 L 14350 2942 L 14307 2930 L 14297 2926 L 14137 2878 Q 14109 2922 14074 2959 Q 13999 3038 13894 3086 L 13846 3105 L 13794 3120 L 13746 3129 L 13721 3131 L 13720 3132 L 13709 3132 L 13708 3133 L 13691 3133 L 13690 3134 L 13646 3134 L 13645 3133 L 13629 3133 L 13628 3132 L 13617 3132 L 13616 3131 L 13600 3130 L 13567 3124 L 13525 3112 Q 13494 3101 13469 3085 L 13438 3063 L 13411 3038 L 13409 3038 L 13409 3037 Q 13394 3022 13381 3006 L 13359 2974 Q 13340 2943 13327 2907 L 13313 2863 L 13304 2822 L 13301 2797 L 13300 2796 L 13300 2789 L 13299 2788 L 13298 2769 L 13297 2768 L 13296 2732 L 13295 2731 L 13295 2704 L 13296 2703 L 13296 2681 L 13297 2680 L 13297 2671 L 13304 2672 L 13316 2672 L 13317 2673 L 13329 2673 L 13330 2674 L 13344 2674 L 13345 2675 L 13364 2675 L 13365 2676 L 13418 2677 L 13419 2678 L 13451 2678 L 13452 2679 L 13493 2679 L 13494 2680 L 13669 2680 L 13670 2679 L 13704 2679 L 13705 2678 L 13752 2677 L 13753 2676 L 13771 2676 L 13772 2675 L 13788 2675 L 13789 2674 L 13831 2672 L 13832 2671 L 13855 2670 L 13856 2669 L 13866 2669 L 13867 2668 L 13877 2668 L 13878 2667 L 13887 2667 L 13888 2666 L 13924 2663 L 13925 2662 L 13932 2662 L 13933 2661 L 13940 2661 L 13941 2660 L 13948 2660 L 13949 2659 L 13956 2659 L 13985 2654 L 13991 2654 L 13998 2652 L 14004 2652 L 14029 2647 L 14034 2647 L 14040 2645 L 14045 2645 L 14051 2643 L 14056 2643 L 14114 2631 L 14170 2617 L 14230 2599 L 14275 2583 L 14330 2560 Q 14426 2516 14501 2450 Q 14573 2386 14616 2294 Q 14628 2267 14637 2238 L 14647 2199 L 14653 2166 L 14655 2144 L 14656 2143 L 14657 2120 L 14658 2119 L 14658 2100 L 14659 2099 L 14658 2045 L 14657 2044 L 14657 2032 L 14656 2031 L 14656 2022 L 14655 2021 L 14653 1998 L 14645 1956 L 14632 1911 Q 14600 1822 14542 1760 Q 14499 1713 14444 1678 Q 14412 1658 14376 1642 Q 14342 1627 14305 1615 L 14260 1602 L 14226 1594 L 14196 1588 L 14166 1584 L 14165 1583 L 14159 1583 L 14158 1582 L 14152 1582 L 14151 1581 L 14145 1581 L 14144 1580 L 14108 1577 L 14107 1576 L 14096 1576 L 14095 1575 L 14067 1574 L 14066 1573 L 14046 1573 L 14045 1572 L 13944 1572 Z M 7478 1592 L 7478 3440 L 7880 3440 L 7880 3440 L 7880 1594 L 7879 1592 L 7478 1592 Z M 17152 2953 L 17151 2954 L 17130 2955 L 17107 2959 L 17091 2963 L 17060 2974 Q 17015 2993 16982 3024 Q 16944 3058 16920 3107 Q 16910 3127 16903 3152 L 16897 3179 L 16896 3192 L 16895 3193 L 16895 3202 L 16894 3203 L 16894 3247 L 16895 3248 L 16895 3257 L 16896 3258 L 16896 3265 L 16899 3282 L 16905 3305 Q 16924 3364 16961 3405 Q 16998 3447 17052 3472 L 17093 3487 L 17120 3493 L 17144 3495 L 17145 3496 L 17186 3496 L 17187 3495 L 17197 3495 L 17226 3490 L 17260 3480 Q 17313 3459 17352 3423 Q 17389 3388 17412 3340 Q 17423 3316 17430 3288 L 17435 3260 L 17436 3237 L 17437 3236 L 17437 3215 L 17436 3214 L 17436 3200 L 17435 3199 L 17434 3183 L 17431 3167 L 17423 3138 Q 17404 3083 17369 3045 Q 17331 3000 17274 2975 Q 17246 2963 17214 2957 L 17194 2955 L 17193 2954 L 17180 2954 L 17179 2953 L 17152 2953 Z M 15774 3685 L 15741 3758 L 15746 3760 L 15795 3774 L 15850 3687 L 15850 3685 L 15774 3685 Z M 7625 3806 L 7624 3807 L 7613 3807 L 7612 3808 L 7605 3808 L 7588 3811 L 7559 3820 Q 7524 3835 7498 3858 Q 7464 3888 7444 3933 L 7432 3968 L 7427 3995 L 7427 4005 L 7426 4006 L 7426 4037 L 7427 4038 L 7428 4055 L 7434 4082 L 7440 4100 Q 7457 4144 7486 4176 Q 7513 4207 7553 4226 Q 7571 4235 7594 4240 L 7613 4242 L 7614 4243 L 7628 4243 L 7629 4244 L 7666 4242 L 7702 4234 Q 7743 4221 7774 4196 L 7797 4172 L 7806 4158 L 7812 4146 L 7812 4142 L 7748 4104 L 7743 4103 Q 7737 4119 7726 4131 Q 7711 4147 7691 4157 L 7664 4166 L 7653 4168 L 7644 4168 L 7643 4169 L 7622 4168 L 7598 4162 Q 7579 4155 7565 4143 Q 7546 4127 7533 4106 Q 7524 4090 7518 4071 L 7512 4039 L 7512 4010 L 7518 3978 Q 7528 3944 7547 3922 Q 7561 3905 7581 3894 L 7603 3885 L 7626 3881 L 7646 3881 L 7673 3886 Q 7698 3894 7716 3909 Q 7732 3924 7742 3945 L 7806 3901 Q 7797 3881 7783 3866 Q 7757 3836 7719 3820 L 7698 3813 L 7674 3808 L 7654 3807 L 7653 3806 L 7625 3806 Z M 10389 3806 L 10388 3807 L 10377 3807 L 10354 3811 L 10321 3822 Q 10289 3836 10266 3857 Q 10238 3881 10219 3915 Q 10206 3937 10198 3964 L 10193 3985 L 10192 3997 L 10191 3998 L 10191 4007 L 10190 4008 L 10190 4042 L 10191 4043 L 10191 4052 L 10195 4075 L 10203 4102 Q 10219 4145 10248 4177 Q 10276 4208 10317 4227 Q 10333 4235 10353 4239 L 10369 4242 L 10392 4243 L 10393 4244 L 10431 4242 L 10452 4238 L 10474 4231 Q 10513 4216 10541 4189 Q 10569 4162 10588 4125 Q 10597 4106 10603 4085 L 10607 4067 L 10608 4055 L 10609 4054 L 10609 4045 L 10610 4044 L 10610 4009 L 10609 4008 L 10609 3999 L 10605 3976 L 10598 3952 Q 10582 3907 10553 3875 Q 10523 3840 10478 3820 L 10458 3813 L 10435 3808 L 10417 3807 L 10416 3806 L 10389 3806 Z M 14410 3806 L 14409 3807 L 14398 3807 L 14375 3811 L 14349 3819 Q 14323 3829 14305 3846 Q 14287 3862 14276 3885 L 14268 3910 L 14267 3921 L 14266 3922 L 14266 3935 L 14265 3936 L 14266 3959 L 14269 3974 Q 14274 3992 14285 4005 Q 14304 4027 14334 4039 L 14371 4053 L 14449 4075 L 14474 4086 L 14487 4095 Q 14493 4101 14497 4111 L 14499 4121 Q 14499 4139 14491 4149 Q 14484 4157 14474 4161 L 14461 4165 L 14450 4166 L 14449 4167 L 14413 4167 L 14412 4166 L 14393 4164 L 14370 4158 Q 14339 4148 14314 4134 L 14286 4115 L 14248 4188 Q 14285 4214 14333 4229 L 14374 4239 L 14393 4241 L 14394 4242 L 14421 4243 L 14422 4244 L 14455 4243 L 14456 4242 L 14464 4242 L 14492 4237 L 14521 4227 Q 14537 4220 14550 4209 Q 14565 4196 14575 4179 L 14585 4155 L 14589 4134 L 14589 4099 L 14586 4082 Q 14580 4060 14568 4046 Q 14557 4033 14543 4023 L 14516 4009 L 14477 3995 L 14440 3986 L 14396 3973 L 14374 3963 L 14367 3958 L 14358 3949 L 14355 3943 L 14353 3934 L 14354 3917 L 14361 3902 Q 14369 3891 14383 3886 L 14398 3882 L 14417 3881 L 14418 3880 L 14446 3882 L 14482 3892 L 14516 3908 L 14537 3923 L 14569 3866 L 14574 3853 L 14541 3834 Q 14519 3823 14495 3816 L 14476 3811 L 14459 3808 L 14452 3808 L 14451 3807 L 14410 3806 Z M 17211 3806 L 17210 3807 L 17200 3807 L 17199 3808 L 17186 3809 L 17169 3813 L 17139 3824 Q 17107 3839 17083 3862 Q 17050 3893 17030 3938 Q 17022 3956 17017 3978 L 17014 3994 L 17013 4016 L 17012 4017 L 17012 4034 L 17013 4035 L 17013 4048 L 17014 4049 L 17015 4063 L 17024 4098 Q 17040 4141 17067 4173 Q 17097 4209 17144 4229 L 17175 4239 L 17192 4242 L 17199 4242 L 17200 4243 L 17215 4243 L 17216 4244 L 17254 4242 L 17282 4236 L 17294 4232 Q 17330 4218 17358 4194 Q 17391 4165 17411 4124 Q 17422 4101 17428 4075 L 17431 4058 L 17431 4051 L 17432 4050 L 17432 4037 L 17433 4036 L 17433 4017 L 17432 4016 L 17431 3995 L 17426 3970 L 17419 3948 Q 17402 3903 17372 3871 Q 17340 3836 17293 3817 L 17268 3810 L 17251 3808 L 17250 3807 L 17211 3806 Z M 8017 3809 L 8017 4241 L 8317 4241 L 8317 4166 L 8102 4166 L 8102 4055 L 8282 4055 L 8282 3986 L 8102 3986 L 8102 3883 L 8311 3883 L 8311 3810 L 8311 3809 L 8017 3809 Z M 8530 3809 L 8530 4241 L 8531 4241 L 8615 4241 L 8616 3966 L 8832 4240 L 8834 4241 L 8903 4241 L 8903 3811 L 8903 3810 L 8819 3810 L 8819 4091 L 8600 3811 L 8599 3809 L 8530 3809 Z M 9105 3809 L 9105 3883 L 9243 3883 L 9243 3884 L 9243 4241 L 9327 4241 L 9327 4241 L 9327 3883 L 9464 3883 L 9464 3810 L 9464 3809 L 9105 3809 Z M 9666 3809 L 9666 4241 L 9751 4241 L 9751 4096 L 9834 4096 L 9921 4240 L 9923 4241 L 10015 4241 L 10013 4236 L 9917 4079 Q 9936 4071 9950 4058 Q 9966 4043 9977 4024 L 9989 3995 L 9994 3970 L 9994 3937 L 9990 3916 Q 9979 3878 9956 3854 Q 9940 3836 9919 3824 L 9892 3813 L 9877 3810 L 9869 3810 L 9868 3809 L 9666 3809 Z M 11112 3809 L 11112 4052 L 11113 4053 L 11114 4072 L 11122 4112 L 11131 4138 Q 11143 4166 11161 4188 Q 11183 4214 11218 4229 L 11241 4237 L 11260 4241 L 11275 4242 L 11276 4243 L 11292 4243 L 11293 4244 L 11326 4243 L 11327 4242 L 11347 4240 L 11364 4236 Q 11400 4225 11425 4203 Q 11454 4177 11470 4138 L 11478 4115 L 11483 4095 L 11486 4072 L 11487 4071 L 11487 4063 L 11488 4062 L 11488 4050 L 11489 4049 L 11489 3809 L 11405 3809 L 11405 4045 L 11404 4046 L 11404 4056 L 11399 4085 L 11393 4104 Q 11386 4122 11375 4136 Q 11362 4153 11341 4162 L 11329 4166 L 11318 4168 L 11308 4168 L 11307 4169 L 11284 4168 L 11269 4165 Q 11251 4160 11239 4149 Q 11220 4133 11210 4109 L 11200 4076 L 11198 4058 L 11197 4057 L 11197 4048 L 11196 4047 L 11196 3809 L 11112 3809 Z M 11722 3809 L 11722 4241 L 11723 4241 L 11806 4241 L 11807 3966 L 12024 4240 L 12025 4241 L 12095 4241 L 12095 3811 L 12095 3810 L 12011 3810 L 12011 4091 L 11792 3812 L 11790 3809 L 11722 3809 Z M 12333 3809 L 12333 4241 L 12334 4241 L 12418 4241 L 12418 3810 L 12418 3809 L 12333 3809 Z M 12612 3809 L 12775 4239 L 12776 4241 L 12857 4241 L 13020 3810 L 12932 3809 L 12929 3813 L 12921 3839 L 12919 3842 L 12817 4139 L 12701 3811 L 12701 3809 L 12612 3809 Z M 13214 3809 L 13214 4241 L 13514 4241 L 13514 4166 L 13299 4166 L 13299 4055 L 13480 4055 L 13480 3986 L 13299 3986 L 13299 3883 L 13509 3883 L 13509 3810 L 13509 3809 L 13214 3809 Z M 13728 3809 L 13728 4241 L 13812 4241 L 13812 4096 L 13895 4096 L 13983 4240 L 13984 4241 L 14077 4241 L 13979 4079 Q 13994 4072 14007 4062 Q 14025 4046 14038 4025 L 14050 3997 L 14054 3981 L 14055 3967 L 14056 3966 L 14056 3941 L 14051 3914 Q 14041 3880 14021 3858 Q 14006 3839 13986 3827 L 13963 3816 L 13939 3810 L 13931 3810 L 13930 3809 L 13728 3809 Z M 14801 3809 L 14801 4241 L 14802 4241 L 14885 4241 L 14885 3810 L 14885 3809 L 14801 3809 Z M 15086 3809 L 15086 3883 L 15224 3883 L 15224 3884 L 15224 4241 L 15308 4241 L 15308 4241 L 15308 3883 L 15445 3883 L 15445 3810 L 15445 3809 L 15086 3809 Z M 15724 3809 L 15566 4238 L 15567 4241 L 15653 4241 L 15688 4136 L 15689 4133 L 15846 4133 L 15881 4239 L 15882 4241 L 15968 4241 L 15968 4238 L 15960 4216 L 15811 3811 L 15810 3809 L 15724 3809 Z M 16164 3809 L 16164 4241 L 16248 4241 L 16248 4096 L 16331 4096 L 16419 4240 L 16420 4241 L 16513 4241 L 16415 4079 Q 16431 4071 16444 4061 Q 16462 4046 16474 4025 L 16486 3997 L 16490 3981 L 16491 3967 L 16492 3966 L 16492 3941 L 16487 3914 Q 16477 3880 16457 3858 Q 16442 3840 16422 3827 L 16399 3816 L 16375 3810 L 16367 3810 L 16366 3809 L 16164 3809 Z M 16716 3809 L 16716 4241 L 16717 4241 L 16801 4241 L 16801 3810 L 16801 3809 L 16716 3809 Z " /><path fill="rgb(0,0,0)" stroke="rgb(0,0,0)" stroke-width="1" opacity="0" d="M 4871.5 430 L 4922.5 430 L 4923.5 431 L 4941.5 431 L 4942.5 432 L 4965.5 433 L 4966.5 434 L 4974.5 434 L 4975.5 435 L 5003.5 438 L 5050.5 447 L 5100.5 460 L 5140.5 473 Q 5193.3 491.7 5241.5 515 Q 5336.7 561.3 5417.5 622 Q 5505.4 688.1 5580 767.5 Q 5663.3 856.2 5733 958.5 Q 5805.1 1063.9 5865 1181.5 Q 5927.2 1303.3 5978 1436.5 L 6009 1521.5 L 6034 1596.5 L 6068 1712 L 6050.5 1707 L 5973.5 1649 L 5863.5 1576 Q 5785.6 1527.4 5703.5 1483 Q 5511.5 1379 5298.5 1296 L 5170.5 1247 L 5005.5 1188 L 4848.5 1136 L 4845.5 1136 L 4826.5 1129 L 4712.5 1094 L 4548.5 1047 L 4451.5 1022 L 4447.5 1020 L 4420.5 1014 L 4416.5 1012 L 4269.5 976 L 4265.5 976 L 4230.5 967 L 4226.5 967 L 4199.5 960 L 4119 943 Q 4217.2 798.9 4341.5 680 Q 4400 624.5 4466.5 577 Q 4526.8 533.8 4596.5 500 Q 4629.5 484 4665.5 471 L 4729.5 451 L 4754.5 445 L 4797.5 437 L 4828.5 434 L 4829.5 433 L 4838.5 433 L 4839.5 432 L 4870.5 431 L 4871.5 430 Z " /><path fill="rgb(0,0,0)" stroke="rgb(0,0,0)" stroke-width="1" opacity="0" d="M 3281.5 968 L 3338.5 969 L 3339.5 970 L 3357.5 970 L 3358.5 971 L 3385.5 972 L 3386.5 973 L 3397.5 973 L 3398.5 974 L 3429.5 976 L 3430.5 977 L 3438.5 977 L 3439.5 978 L 3447.5 978 L 3448.5 979 L 3456.5 979 L 3457.5 980 L 3465.5 980 L 3466.5 981 L 3503.5 985 L 3504.5 986 L 3511.5 986 L 3512.5 987 L 3518.5 987 L 3558.5 994 L 3564.5 994 L 3565.5 995 L 3606.5 1001 L 3612.5 1003 L 3623.5 1004 L 3629.5 1006 L 3634.5 1006 L 3640.5 1008 L 3645.5 1008 L 3651.5 1010 L 3656.5 1010 L 3830 1045 Q 3698.1 1225.3 3594 1434.5 Q 3539.6 1544.1 3493 1661.5 L 3447 1785.5 L 3422 1860.5 L 3406 1914 Q 3244.7 1973.1 3096 2045 L 3083 2015.5 L 3065 1969.5 L 3011 1816.5 L 2983 1730.5 L 2959 1643.5 L 2944 1571.5 L 2938 1526.5 L 2937 1525.5 L 2934 1491.5 L 2933 1490.5 L 2931 1456.5 L 2930 1455.5 L 2930 1442.5 L 2929 1441.5 L 2929 1424.5 L 2928 1423.5 L 2926 1343.5 L 2927 1342.5 L 2927 1322.5 L 2928 1321.5 L 2928 1308.5 L 2929 1307.5 L 2930 1287.5 L 2931 1286.5 L 2931 1279.5 L 2932 1278.5 L 2932 1271.5 L 2933 1270.5 L 2936 1245.5 L 2945 1204.5 L 2955 1171.5 L 2972 1130.5 L 2990 1098.5 Q 3007.9 1070.9 3031.5 1049 Q 3074.8 1009.3 3137.5 989 L 3166.5 981 L 3203.5 974 L 3226.5 972 L 3227.5 971 L 3237.5 971 L 3238.5 970 L 3280.5 969 L 3281.5 968 Z " /><path fill="rgb(0,0,0)" stroke="rgb(0,0,0)" stroke-width="1" opacity="0" d="M 4025 1086 L 4051.5 1091 L 4167.5 1120 L 4171.5 1122 L 4190.5 1126 L 4194.5 1128 L 4282.5 1151 L 4349.5 1171 L 4356.5 1172 L 4366.5 1176 L 4436.5 1196 L 4562.5 1236 L 4565.5 1236 L 4788.5 1310 L 5008.5 1390 L 5160.5 1450 Q 5335.7 1521.3 5502 1601.5 L 5499.5 1602 L 5498.5 1601 L 5463.5 1599 L 5462.5 1598 L 5451.5 1598 L 5450.5 1597 L 5437.5 1597 L 5436.5 1596 L 5390.5 1594 L 5389.5 1593 L 5371.5 1593 L 5370.5 1592 L 5351.5 1592 L 5350.5 1591 L 5328.5 1591 L 5327.5 1590 L 5266.5 1589 L 5265.5 1588 L 5204.5 1588 L 5203.5 1587 L 5130.5 1587 L 5129.5 1588 L 5066.5 1588 L 5065.5 1589 L 5029.5 1589 L 5028.5 1590 L 4999.5 1590 L 4998.5 1591 L 4952.5 1592 L 4951.5 1593 L 4895.5 1595 L 4894.5 1596 L 4879.5 1596 L 4878.5 1597 L 4864.5 1597 L 4863.5 1598 L 4849.5 1598 L 4848.5 1599 L 4835.5 1599 L 4834.5 1600 L 4821.5 1600 L 4820.5 1601 L 4771.5 1604 L 4770.5 1605 L 4727.5 1608 L 4726.5 1609 L 4717.5 1609 L 4716.5 1610 L 4707.5 1610 L 4706.5 1611 L 4697.5 1611 L 4696.5 1612 L 4687.5 1612 L 4686.5 1613 L 4677.5 1613 L 4676.5 1614 L 4623.5 1619 L 4614.5 1621 L 4606.5 1621 L 4605.5 1622 L 4558.5 1627 L 4550.5 1629 L 4543.5 1629 L 4535.5 1631 L 4528.5 1631 L 4527.5 1632 L 4465.5 1640 L 4458.5 1642 L 4445.5 1643 L 4438.5 1645 L 4432.5 1645 L 4419.5 1648 L 4413.5 1648 L 4412.5 1649 L 4347.5 1659 L 4341.5 1661 L 4330.5 1662 L 4324.5 1664 L 4313.5 1665 L 4264.5 1675 L 4259.5 1675 L 4155.5 1696 L 4150.5 1698 L 4141.5 1699 L 4136.5 1701 L 4127.5 1702 L 4073.5 1715 L 4069.5 1715 L 4060.5 1718 L 4056.5 1718 L 4047.5 1721 L 4043.5 1721 L 3865.5 1766 L 3706 1812 L 3727 1742.5 L 3770 1618.5 Q 3804.6 1524.6 3844 1435.5 Q 3925.4 1251.2 4025 1086 Z " /><path fill="rgb(0,0,0)" stroke="rgb(0,0,0)" stroke-width="1" opacity="0" d="M 4936.5 1688 L 5054.5 1688 L 5055.5 1689 L 5091.5 1689 L 5092.5 1690 L 5118.5 1690 L 5119.5 1691 L 5158.5 1692 L 5159.5 1693 L 5174.5 1693 L 5175.5 1694 L 5190.5 1694 L 5191.5 1695 L 5204.5 1695 L 5205.5 1696 L 5241.5 1698 L 5242.5 1699 L 5252.5 1699 L 5253.5 1700 L 5273.5 1701 L 5274.5 1702 L 5327.5 1707 L 5328.5 1708 L 5335.5 1708 L 5336.5 1709 L 5343.5 1709 L 5344.5 1710 L 5351.5 1710 L 5359.5 1712 L 5366.5 1712 L 5367.5 1713 L 5401.5 1717 L 5408.5 1719 L 5414.5 1719 L 5415.5 1720 L 5462.5 1727 L 5534.5 1741 L 5635.5 1765 L 5696.5 1782 L 5799.5 1815 L 5872.5 1842 Q 5909.8 1874.2 5944 1909.5 Q 6019.4 1986.6 6080 2078.5 Q 6139.2 2168.3 6181 2275.5 L 6202 2335.5 L 6213 2372.5 L 6228 2433.5 L 6235 2468.5 L 6236 2479.5 L 6238 2485.5 L 6238 2491.5 L 6239 2492.5 L 6244 2532.5 L 6245 2533.5 L 6246 2549.5 L 6247 2550.5 L 6249 2580.5 L 6250 2581.5 L 6250 2593.5 L 6251 2594.5 L 6251 2607.5 L 6252 2608.5 L 6252 2625.5 L 6253 2626.5 L 6253 2706.5 L 6252 2707.5 L 6252 2730.5 L 6251 2731.5 L 6250 2764.5 L 6249 2765.5 L 6249 2778.5 L 6248 2779.5 L 6248 2790.5 L 6247 2791.5 L 6247 2802.5 L 6246 2803.5 L 6244 2832.5 L 6243 2833.5 L 6243 2841.5 L 6242 2842.5 L 6242 2850.5 L 6241 2851.5 L 6238 2882.5 L 6236 2890.5 L 6236 2897.5 L 6235 2898.5 L 6234 2911.5 L 6232 2918.5 L 6232 2924.5 L 6230 2931.5 L 6230 2937.5 L 6229 2938.5 L 6224 2973.5 L 6222 2979.5 L 6222 2984.5 L 6220 2990.5 L 6220 2995.5 L 6216 3011.5 L 6213 3031.5 L 6211 3036.5 L 6208 3055.5 L 6199 3091.5 L 6199 3095.5 L 6184 3150.5 L 6173 3186 L 6101.5 3206 L 6006.5 3230 L 6002.5 3230 L 5989.5 3234 L 5985.5 3234 L 5931.5 3247 L 5852.5 3263 L 5847.5 3263 L 5803.5 3272 L 5798.5 3272 L 5731.5 3284 L 5699.5 3288 L 5692.5 3290 L 5686.5 3290 L 5685.5 3291 L 5679.5 3291 L 5650.5 3296 L 5643.5 3296 L 5628.5 3299 L 5621.5 3299 L 5613.5 3301 L 5606.5 3301 L 5605.5 3302 L 5598.5 3302 L 5597.5 3303 L 5590.5 3303 L 5589.5 3304 L 5582.5 3304 L 5581.5 3305 L 5574.5 3305 L 5557.5 3308 L 5549.5 3308 L 5540.5 3310 L 5496.5 3314 L 5495.5 3315 L 5486.5 3315 L 5485.5 3316 L 5437.5 3320 L 5436.5 3321 L 5427.5 3321 L 5426.5 3322 L 5416.5 3322 L 5405.5 3324 L 5395.5 3324 L 5394.5 3325 L 5384.5 3325 L 5383.5 3326 L 5373.5 3326 L 5372.5 3327 L 5313.5 3331 L 5312.5 3332 L 5300.5 3332 L 5299.5 3333 L 5287.5 3333 L 5286.5 3334 L 5274.5 3334 L 5273.5 3335 L 5261.5 3335 L 5260.5 3336 L 5247.5 3336 L 5246.5 3337 L 5233.5 3337 L 5232.5 3338 L 5218.5 3338 L 5217.5 3339 L 5204.5 3339 L 5203.5 3340 L 5157.5 3342 L 5156.5 3343 L 5105.5 3345 L 5104.5 3346 L 5086.5 3346 L 5085.5 3347 L 5067.5 3347 L 5066.5 3348 L 5001.5 3350 L 5000.5 3351 L 4976.5 3351 L 4975.5 3352 L 4949.5 3352 L 4948.5 3353 L 4920.5 3353 L 4919.5 3354 L 4846.5 3355 L 4845.5 3356 L 4706.5 3357 L 4705.5 3358 L 4609.5 3358 L 4608.5 3357 L 4519.5 3357 L 4518.5 3356 L 4468.5 3356 L 4467.5 3355 L 4394.5 3354 L 4393.5 3353 L 4363.5 3353 L 4362.5 3352 L 4336.5 3352 L 4335.5 3351 L 4310.5 3351 L 4309.5 3350 L 4287.5 3350 L 4286.5 3349 L 4265.5 3349 L 4264.5 3348 L 4204.5 3346 L 4203.5 3345 L 4186.5 3345 L 4185.5 3344 L 4168.5 3344 L 4167.5 3343 L 4118.5 3341 L 4117.5 3340 L 4087.5 3339 L 4086.5 3338 L 4058.5 3337 L 4057.5 3336 L 4044.5 3336 L 4043.5 3335 L 4031.5 3335 L 4030.5 3334 L 4018.5 3334 L 4017.5 3333 L 3967.5 3330 L 3966.5 3329 L 3957.5 3329 L 3951 3322.5 Q 3850.7 3205.3 3758 3080.5 Q 3652.6 2938.4 3554 2789.5 L 3555 2788.5 L 3555 2755.5 L 3556 2754.5 L 3556 2728.5 L 3557 2727.5 L 3558 2684.5 L 3559 2683.5 L 3559 2665.5 L 3560 2664.5 L 3560 2648.5 L 3561 2647.5 L 3561 2632.5 L 3562 2631.5 L 3562 2617.5 L 3563 2616.5 L 3565 2575.5 L 3566 2574.5 L 3568 2539.5 L 3569 2538.5 L 3569 2528.5 L 3570 2527.5 L 3570 2517.5 L 3571 2516.5 L 3571 2506.5 L 3572 2505.5 L 3574 2476.5 L 3576 2466.5 L 3576 2457.5 L 3577 2456.5 L 3579 2430.5 L 3580 2429.5 L 3587 2366.5 L 3589 2358.5 L 3589 2351.5 L 3590 2350.5 L 3595 2309.5 L 3597 2302.5 L 3598 2289.5 L 3601 2276.5 L 3601 2270.5 L 3602 2269.5 L 3610 2216.5 L 3612 2210.5 L 3617 2177.5 L 3632 2101.5 L 3634 2096.5 L 3636 2082.5 L 3651 2019.5 L 3651 2015.5 L 3656 1998.5 L 3656 1994.5 L 3675 1919.5 L 3678.5 1912 L 3862.5 1861 L 4039.5 1816 L 4043.5 1816 L 4094.5 1803 L 4098.5 1803 L 4107.5 1800 L 4111.5 1800 L 4188.5 1782 L 4197.5 1781 L 4202.5 1779 L 4366.5 1747 L 4383.5 1745 L 4389.5 1743 L 4394.5 1743 L 4443.5 1734 L 4449.5 1734 L 4482.5 1728 L 4515.5 1724 L 4516.5 1723 L 4523.5 1723 L 4545.5 1719 L 4552.5 1719 L 4553.5 1718 L 4560.5 1718 L 4568.5 1716 L 4575.5 1716 L 4576.5 1715 L 4583.5 1715 L 4600.5 1712 L 4608.5 1712 L 4617.5 1710 L 4662.5 1706 L 4663.5 1705 L 4704.5 1702 L 4705.5 1701 L 4715.5 1701 L 4716.5 1700 L 4727.5 1700 L 4728.5 1699 L 4739.5 1699 L 4740.5 1698 L 4751.5 1698 L 4752.5 1697 L 4794.5 1695 L 4795.5 1694 L 4810.5 1694 L 4811.5 1693 L 4869.5 1691 L 4870.5 1690 L 4897.5 1690 L 4898.5 1689 L 4935.5 1689 L 4936.5 1688 Z " /><path fill="rgb(0,0,0)" stroke="rgb(0,0,0)" stroke-width="1" opacity="0" d="M 13904.5 1917 L 13950.5 1917 L 13951.5 1918 L 13968.5 1918 L 13969.5 1919 L 13989.5 1920 L 13990.5 1921 L 14004.5 1922 L 14031.5 1927 L 14061.5 1935 Q 14091.5 1944.5 14116.5 1959 Q 14142.7 1974.3 14163 1995.5 Q 14184 2016.5 14195 2047.5 L 14202 2076.5 L 14204 2111.5 L 14203 2112.5 L 14203 2144.5 L 14202 2145.5 L 14201 2158.5 Q 14196.7 2181.2 14188 2199.5 Q 14169.1 2237.6 14138.5 2264 Q 14101.9 2295.4 14053.5 2315 L 13997.5 2335 L 13956.5 2346 L 13913.5 2355 L 13908.5 2355 L 13883.5 2360 L 13877.5 2360 L 13876.5 2361 L 13870.5 2361 L 13869.5 2362 L 13863.5 2362 L 13862.5 2363 L 13839.5 2365 L 13838.5 2366 L 13810.5 2368 L 13809.5 2369 L 13799.5 2369 L 13798.5 2370 L 13787.5 2370 L 13786.5 2371 L 13760.5 2372 L 13759.5 2373 L 13725.5 2374 L 13724.5 2375 L 13702.5 2375 L 13701.5 2376 L 13672.5 2376 L 13671.5 2377 L 13565.5 2378 L 13564.5 2377 L 13508.5 2377 L 13507.5 2376 L 13453.5 2375 L 13452.5 2374 L 13432.5 2374 L 13431.5 2373 L 13382.5 2371 L 13381.5 2370 L 13369.5 2370 L 13368.5 2369 L 13360 2368.5 Q 13429 2187.5 13558.5 2067 Q 13629.3 2000.8 13723.5 1958 L 13768.5 1941 L 13812.5 1929 L 13857.5 1921 L 13874.5 1920 L 13875.5 1919 L 13886.5 1919 L 13887.5 1918 L 13903.5 1918 L 13904.5 1917 Z " /><path fill="rgb(0,0,0)" stroke="rgb(0,0,0)" stroke-width="1" opacity="0" d="M 15694.5 1994 L 15741.5 1995 L 15742.5 1996 L 15760.5 1997 L 15761.5 1998 L 15767.5 1998 L 15790.5 2002 L 15829.5 2012 L 15853.5 2020 L 15887.5 2034 Q 16004.1 2088.9 16086 2178.5 Q 16120.7 2215.8 16148 2260.5 Q 16172.9 2301.1 16190 2349.5 L 16190 2780.5 Q 16173.9 2831.9 16146 2871.5 Q 16116 2914 16077.5 2948 Q 16037.2 2985.2 15989.5 3015 Q 15949.2 3040.2 15902.5 3059 L 15851.5 3076 L 15810.5 3085 L 15804.5 3085 L 15789.5 3088 L 15780.5 3088 L 15779.5 3089 L 15768.5 3089 L 15767.5 3090 L 15705.5 3090 L 15704.5 3089 L 15691.5 3089 L 15690.5 3088 L 15664.5 3086 L 15614.5 3077 L 15571.5 3065 L 15531.5 3050 Q 15445 3013 15384 2950.5 Q 15301.6 2866.4 15257 2744.5 L 15247 2713.5 L 15239 2682.5 L 15229 2625.5 L 15229 2617.5 L 15227 2607.5 L 15227 2596.5 L 15226 2595.5 L 15226 2580.5 L 15225 2579.5 L 15225 2514.5 L 15226 2513.5 L 15226 2497.5 L 15227 2496.5 L 15227 2485.5 L 15228 2484.5 L 15228 2475.5 L 15229 2474.5 L 15231 2450.5 L 15243 2388.5 L 15260 2331.5 L 15278 2286.5 Q 15324.9 2184.4 15403.5 2114 Q 15462.1 2060.1 15540.5 2026 L 15573.5 2014 L 15611.5 2004 L 15638.5 1999 L 15652.5 1998 L 15653.5 1997 L 15674.5 1996 L 15675.5 1995 L 15693.5 1995 L 15694.5 1994 Z " /><path fill="rgb(0,0,0)" stroke="rgb(0,0,0)" stroke-width="1" opacity="0" d="M 3378.5 2005 Q 3380.8 2004.3 3380 2006.5 L 3357 2093.5 L 3357 2097.5 L 3353 2110.5 L 3353 2114.5 L 3350 2123.5 L 3350 2127.5 L 3338 2177.5 L 3337 2186.5 L 3335 2191.5 L 3320 2267.5 L 3316 2294.5 L 3314 2300.5 L 3298.5 2398 L 3186 2216.5 L 3148 2149.5 L 3127 2108 L 3249.5 2054 L 3378.5 2005 Z " /><path fill="rgb(0,0,0)" stroke="rgb(0,0,0)" stroke-width="1" opacity="0" d="M 6381.5 2129 Q 6422.2 2163.3 6459 2201.5 Q 6501.5 2245.5 6537 2296.5 Q 6573.9 2348.6 6600 2411.5 L 6617 2459.5 L 6625 2489.5 L 6631 2519.5 L 6633 2538.5 L 6634 2539.5 L 6634 2547.5 L 6635 2548.5 L 6635 2557.5 L 6636 2558.5 L 6636 2570.5 L 6637 2571.5 L 6637 2633.5 L 6636 2634.5 L 6635 2657.5 L 6634 2658.5 L 6634 2665.5 L 6633 2666.5 L 6633 2673.5 L 6632 2674.5 L 6629 2698.5 L 6618 2746.5 L 6603 2794.5 L 6579 2853.5 Q 6549.7 2916.7 6513 2972.5 Q 6486.9 3015.4 6450.5 3048 Q 6429.6 3067.1 6405.5 3083 L 6405 3081.5 L 6416 3036.5 L 6429 2970.5 L 6429 2965.5 L 6437 2922.5 L 6437 2916.5 L 6439 2909.5 L 6442 2881.5 L 6444 2873.5 L 6444 2866.5 L 6445 2865.5 L 6445 2858.5 L 6446 2857.5 L 6447 2841.5 L 6448 2840.5 L 6451 2802.5 L 6452 2801.5 L 6452 2790.5 L 6453 2789.5 L 6453 2778.5 L 6454 2777.5 L 6454 2765.5 L 6455 2764.5 L 6456 2733.5 L 6457 2732.5 L 6457 2710.5 L 6458 2709.5 L 6458 2604.5 L 6457 2603.5 L 6457 2582.5 L 6456 2581.5 L 6455 2552.5 L 6454 2551.5 L 6454 2540.5 L 6453 2539.5 L 6453 2528.5 L 6452 2527.5 L 6450 2500.5 L 6449 2499.5 L 6448 2484.5 L 6447 2483.5 L 6438 2414.5 L 6429 2362.5 L 6429 2356.5 L 6421 2315.5 L 6421 2310.5 L 6419 2304.5 L 6419 2299.5 L 6405 2232.5 L 6394 2188.5 L 6384 2156.5 L 6382 2137.5 L 6381 2136.5 L 6381.5 2129 Z " /><path fill="rgb(0,0,0)" stroke="rgb(0,0,0)" stroke-width="1" opacity="0" d="M 2870.5 2256 Q 2872.8 2255.3 2872 2257.5 Q 2948.3 2394.7 3030 2526.5 Q 3140.3 2705.7 3260 2875.5 L 3260 2881.5 L 3259 2882.5 L 3259 3016.5 L 3260 3017.5 L 3260 3060.5 L 3261 3061.5 L 3261 3092.5 L 3262 3093.5 L 3263 3140.5 L 3264 3141.5 L 3265 3178.5 L 3266 3179.5 L 3266 3195.5 L 3267 3196.5 L 3267 3211.5 L 3268 3212.5 L 3268 3226.5 L 3269 3227.5 L 3267.5 3228 L 3119.5 3193 L 3030.5 3168 L 2926.5 3133 L 2852.5 3103 Q 2772.5 3068 2702.5 3023 L 2643.5 2981 Q 2617.6 2960.4 2595 2936.5 Q 2552.2 2892.8 2526 2832.5 Q 2515.8 2808.2 2510 2779.5 L 2508 2759.5 L 2507 2758.5 L 2507 2748.5 L 2506 2747.5 L 2506 2716.5 L 2507 2715.5 L 2507 2704.5 L 2508 2703.5 L 2510 2683.5 L 2517 2654.5 Q 2530.6 2610.6 2552 2574.5 Q 2575.6 2533.6 2605 2498.5 Q 2641.2 2455.2 2681.5 2416 Q 2728 2369 2778.5 2326 Q 2822.4 2288.9 2870.5 2256 Z " /><path fill="rgb(0,0,0)" stroke="rgb(0,0,0)" stroke-width="1" opacity="0" d="M 6111.5 3286 L 6114 3286.5 Q 6082.4 3319.9 6043.5 3346 L 5998.5 3374 L 5944.5 3403 L 5741.5 3506 L 5643.5 3553 Q 5519.6 3611.1 5389.5 3663 L 5295.5 3699 L 5202.5 3732 L 5098.5 3766 L 4998.5 3796 L 4907.5 3821 L 4807.5 3846 L 4803.5 3846 L 4777.5 3853 L 4773.5 3853 L 4723.5 3865 L 4714.5 3866 L 4709.5 3868 L 4700.5 3869 L 4695.5 3871 L 4603.5 3889 Q 4476.3 3813.7 4363.5 3724 Q 4227.4 3616.1 4107 3492.5 L 4129.5 3492 L 4130.5 3493 L 4163.5 3493 L 4164.5 3494 L 4251.5 3495 L 4252.5 3496 L 4321.5 3496 L 4322.5 3497 L 4541.5 3497 L 4542.5 3496 L 4615.5 3496 L 4616.5 3495 L 4668.5 3495 L 4669.5 3494 L 4749.5 3493 L 4750.5 3492 L 4782.5 3492 L 4783.5 3491 L 4811.5 3491 L 4812.5 3490 L 4838.5 3490 L 4839.5 3489 L 4863.5 3489 L 4864.5 3488 L 4926.5 3486 L 4927.5 3485 L 4940.5 3485 L 4941.5 3484 L 4990.5 3481 L 4991.5 3480 L 5013.5 3479 L 5014.5 3478 L 5024.5 3478 L 5025.5 3477 L 5035.5 3477 L 5036.5 3476 L 5046.5 3476 L 5047.5 3475 L 5057.5 3475 L 5058.5 3474 L 5068.5 3474 L 5069.5 3473 L 5078.5 3473 L 5079.5 3472 L 5138.5 3467 L 5139.5 3466 L 5202.5 3460 L 5211.5 3458 L 5228.5 3457 L 5229.5 3456 L 5236.5 3456 L 5237.5 3455 L 5253.5 3454 L 5254.5 3453 L 5309.5 3447 L 5317.5 3445 L 5332.5 3444 L 5340.5 3442 L 5347.5 3442 L 5348.5 3441 L 5369.5 3439 L 5370.5 3438 L 5439.5 3429 L 5446.5 3427 L 5459.5 3426 L 5466.5 3424 L 5472.5 3424 L 5479.5 3422 L 5485.5 3422 L 5498.5 3419 L 5504.5 3419 L 5523.5 3415 L 5529.5 3415 L 5530.5 3414 L 5577.5 3407 L 5583.5 3405 L 5656.5 3393 L 5667.5 3390 L 5672.5 3390 L 5683.5 3387 L 5688.5 3387 L 5709.5 3382 L 5714.5 3382 L 5764.5 3372 L 5769.5 3370 L 5788.5 3367 L 5793.5 3365 L 5802.5 3364 L 5807.5 3362 L 5816.5 3361 L 5821.5 3359 L 5830.5 3358 L 5866.5 3349 L 5879.5 3347 L 5930.5 3334 L 5934.5 3334 L 6028.5 3310 L 6111.5 3286 Z " /><path fill="rgb(0,0,0)" stroke="rgb(0,0,0)" stroke-width="1" opacity="0" d="M 6078.5 3435 L 6079 3436.5 Q 6042.8 3519.3 6002 3597.5 Q 5966 3667.5 5925 3732.5 Q 5887.6 3792.1 5844 3845.5 Q 5810.6 3886.6 5772.5 3923 Q 5723.5 3970 5664.5 4007 Q 5608.8 4041.8 5542.5 4066 L 5485.5 4084 L 5439.5 4095 L 5400.5 4102 L 5372.5 4105 L 5371.5 4106 L 5363.5 4106 L 5362.5 4107 L 5353.5 4107 L 5352.5 4108 L 5329.5 4109 L 5328.5 4110 L 5255.5 4112 L 5254.5 4111 L 5223.5 4111 L 5222.5 4110 L 5205.5 4110 L 5204.5 4109 L 5180.5 4108 L 5179.5 4107 L 5170.5 4107 L 5169.5 4106 L 5152.5 4105 L 5151.5 4104 L 5144.5 4104 L 5143.5 4103 L 5116.5 4100 L 5048.5 4087 L 4979.5 4069 L 4918.5 4049 L 4866.5 4028 L 4831.5 4012 L 4732 3961 Q 4730.7 3957.7 4735.5 3959 L 4797.5 3942 L 4947.5 3896 L 5186.5 3818 L 5398.5 3744 L 5638.5 3654 L 5783.5 3595 L 5901.5 3543 Q 5997.6 3496.6 6078.5 3435 Z " /><path fill="rgb(0,0,0)" stroke="rgb(0,0,0)" stroke-width="1" opacity="0" d="M 3593.5 3458 L 3618.5 3460 L 3619.5 3461 L 3628.5 3461 L 3629.5 3462 L 3639.5 3462 L 3640.5 3463 L 3650.5 3463 L 3651.5 3464 L 3661.5 3464 L 3662.5 3465 L 3672.5 3465 L 3673.5 3466 L 3683.5 3466 L 3684.5 3467 L 3729.5 3470 L 3738 3478.5 Q 3824.8 3575.7 3918.5 3666 Q 4057.8 3802.7 4215 3921.5 L 4175.5 3922 L 4174.5 3923 L 4112.5 3923 L 4111.5 3922 L 4083.5 3922 L 4082.5 3921 L 4052.5 3920 L 4051.5 3919 L 4031.5 3918 L 4030.5 3917 L 3994.5 3913 L 3935.5 3900 L 3893.5 3886 Q 3801.2 3848.8 3739 3781.5 Q 3684 3722.5 3649 3643.5 Q 3631.3 3604.2 3618 3560.5 L 3605 3513.5 L 3593.5 3458 Z " /><path fill="rgb(0,0,0)" stroke="rgb(0,0,0)" stroke-width="1" opacity="0" d="M 10385.5 3882 L 10414.5 3882 L 10440.5 3888 Q 10467.1 3898.4 10485 3917.5 Q 10503.3 3936.7 10514 3963.5 L 10519 3978.5 L 10523 3996.5 L 10524 4011.5 L 10525 4012.5 L 10525 4036.5 L 10524 4037.5 L 10523 4053.5 L 10519 4071.5 L 10509 4098.5 Q 10496.2 4124.2 10475.5 4142 Q 10461.4 4154.4 10442.5 4162 L 10424.5 4167 L 10407.5 4168 L 10406.5 4169 L 10394.5 4169 L 10393.5 4168 L 10383.5 4168 L 10372.5 4166 L 10349.5 4158 Q 10328.9 4147.6 10314 4131.5 Q 10292.2 4107.8 10282 4072.5 L 10276 4040.5 L 10276 4009.5 L 10282 3977.5 L 10292 3951.5 Q 10303.9 3927.9 10322.5 3911 Q 10337.4 3897.4 10357.5 3889 L 10369.5 3885 L 10385.5 3882 Z " /><path fill="rgb(0,0,0)" stroke="rgb(0,0,0)" stroke-width="1" opacity="0" d="M 17208.5 3882 L 17237.5 3882 L 17238.5 3883 L 17249.5 3884 L 17265.5 3889 Q 17293.8 3900.7 17312 3922.5 Q 17330.4 3943.6 17340 3973.5 L 17344 3988.5 L 17346 4006.5 L 17347 4007.5 L 17347 4042.5 L 17342 4069.5 L 17331 4099.5 Q 17319.5 4122.5 17301.5 4139 Q 17286.9 4152.4 17267.5 4161 L 17240.5 4168 L 17217.5 4169 L 17216.5 4168 L 17199.5 4167 L 17176.5 4160 Q 17150.3 4148.3 17133 4127.5 Q 17114.5 4105.5 17105 4074.5 L 17099 4045.5 L 17098 4015.5 L 17099 4014.5 L 17100 3997.5 L 17104 3979.5 L 17114 3952.5 Q 17127 3926 17148.5 3908 Q 17161.4 3897.4 17177.5 3890 L 17188.5 3886 L 17208.5 3882 Z " /><path fill="rgb(0,0,0)" stroke="rgb(0,0,0)" stroke-width="1" opacity="0" d="M 9751 3883 L 9853.5 3883 Q 9855.3 3885.8 9861.5 3884 Q 9879.6 3888.9 9890 3901.5 Q 9901.5 3914 9907 3932.5 L 9909 3942.5 L 9909 3962.5 L 9906 3977.5 L 9899 3993.5 Q 9893 4004.4 9883.5 4012 L 9871.5 4019 L 9859.5 4022 L 9751 4022 L 9751 3883 Z " /><path fill="rgb(0,0,0)" stroke="rgb(0,0,0)" stroke-width="1" opacity="0" d="M 13812 3883 L 13915.5 3883 Q 13917 3885.5 13922.5 3884 Q 13943.9 3889.6 13955 3905.5 Q 13963.3 3916.2 13968 3930.5 L 13971 3946.5 L 13971 3958.5 L 13970 3959.5 L 13969 3972.5 L 13965 3984.5 Q 13958.7 3999.7 13947.5 4010 L 13933.5 4019 L 13921.5 4022 L 13812 4022 L 13812 3883 Z " /><path fill="rgb(0,0,0)" stroke="rgb(0,0,0)" stroke-width="1" opacity="0" d="M 16248 3883 L 16351.5 3883 Q 16353 3885.5 16358.5 3884 Q 16379.9 3889.6 16391 3905.5 Q 16399.3 3916.2 16404 3930.5 L 16407 3946.5 L 16407 3958.5 L 16406 3959.5 L 16405 3972.5 L 16401 3984.5 Q 16394.7 3999.7 16383.5 4010 L 16369.5 4019 L 16357.5 4022 L 16248 4022 L 16248 3883 Z " /><path fill="rgb(0,0,0)" stroke="rgb(0,0,0)" stroke-width="1" opacity="0" d="M 15767.5 3899 L 15826 4073.5 L 15709 4074 L 15761 3915.5 L 15767.5 3899 Z " /></svg>